<svg width="412" height="72" viewBox="0 0 412 72" fill="none" xmlns="http://www.w3.org/2000/svg">
<rect x="0.432129" y="0.176025" width="410.78" height="71.44" rx="17.86" fill="#F5F5F5"/>
<g clip-path="url(#clip0_468_12345)">
<path d="M21.8643 35.8961C21.8643 24.0595 31.4597 14.4641 43.2963 14.4641V14.4641C55.1328 14.4641 64.7283 24.0595 64.7283 35.8961V35.8961C64.7283 47.7327 55.1328 57.3281 43.2963 57.3281V57.3281C31.4597 57.3281 21.8643 47.7327 21.8643 35.8961V35.8961Z" fill="#EEE7FA"/>
<path d="M38.7718 42.396L35.2741 30.3941H36.8343L39.6462 40.4757L42.5952 30.3941H44.104L46.9502 40.4757L49.7792 30.3941H51.3223L47.8075 42.396H46.0243L43.2811 32.8802L40.5549 42.396H38.7718Z" fill="#250557"/>
<path d="M52.0054 51.0343C52.0054 47.4834 54.884 44.6047 58.435 44.6047V44.6047C61.9859 44.6047 64.8646 47.4834 64.8646 51.0343V51.0343C64.8646 54.5853 61.9859 57.4639 58.435 57.4639V57.4639C54.884 57.4639 52.0054 54.5853 52.0054 51.0343V51.0343Z" fill="#590DCF"/>
<g clip-path="url(#clip1_468_12345)">
<g clip-path="url(#clip2_468_12345)">
<path d="M55.2202 50.6771L58.0778 53.1775L62.007 48.8911" stroke="white" stroke-width="0.5358" stroke-linecap="round" stroke-linejoin="round"/>
</g>
</g>
</g>
<path d="M79.8734 27.7523C79.8734 23.2515 83.5704 19.9653 88.1426 19.9653C92.6076 19.9653 95.6974 22.6622 95.6974 26.4663C95.6974 29.3239 93.9828 31.2528 91.661 31.2528C90.5537 31.2528 89.8571 30.6277 89.7321 29.8776L89.6964 29.6276C89.2499 30.6099 88.1962 31.235 86.9638 31.235C85.285 31.235 83.8383 29.9133 83.8383 27.8237C83.8383 25.5198 85.4814 23.7159 87.4996 23.7159C88.8213 23.7159 89.6071 24.2874 89.8214 24.9661L90.125 23.8588H91.6431L91.1073 28.8953C91.018 29.699 91.3574 30.0026 92.0003 30.0026C93.0898 30.0026 94.09 28.4845 94.09 26.4128C94.09 23.3408 91.7503 21.3048 88.1069 21.3048C84.2134 21.3048 81.4629 24.1088 81.4629 27.7165C81.4629 31.3957 83.8026 33.5389 87.9461 33.5389C89.4642 33.5389 90.8394 33.1817 91.9646 32.5209L91.911 33.9854C91.018 34.5391 89.4999 34.9141 87.7854 34.9141C83.1775 34.9141 79.8734 32.1458 79.8734 27.7523ZM89.6428 27.0021C89.6428 25.7698 88.9106 25.0911 87.8925 25.0911C86.6066 25.0911 85.6243 26.2877 85.6243 27.7165C85.6243 29.0203 86.3923 29.824 87.4282 29.824C88.6427 29.824 89.6428 28.7346 89.6428 27.0021ZM99.5988 32.1101L96.6162 22.9658H98.6522L100.742 29.9669L102.831 22.9658H104.6L106.6 29.9669L108.761 22.9658H110.726L107.689 32.1101H105.618L103.689 25.8948L101.688 32.1101H99.5988ZM119.716 30.4313H120.109V32.1101H119.091C117.84 32.1101 117.412 31.5564 117.412 30.6456C116.805 31.5743 115.876 32.2173 114.393 32.2173C112.393 32.2173 111 31.235 111 29.5383C111 27.663 112.357 26.6092 114.911 26.6092H117.215V26.0556C117.215 25.0375 116.483 24.4124 115.215 24.4124C114.072 24.4124 113.304 24.9482 113.161 25.7519H111.268C111.464 23.9659 113 22.8586 115.304 22.8586C117.733 22.8586 119.126 24.0195 119.126 26.1806V29.8419C119.126 30.3062 119.323 30.4313 119.716 30.4313ZM117.215 28.3595V28.038H114.822C113.625 28.038 112.965 28.4845 112.965 29.4132C112.965 30.1812 113.608 30.717 114.661 30.717C116.269 30.717 117.197 29.7704 117.215 28.3595ZM121.82 29.6276V24.6625H120.231V22.9658H121.82V20.4118H123.767V22.9658H125.999V24.6625H123.767V29.4311C123.767 30.1455 124.017 30.4134 124.749 30.4134H126.107V32.1101H124.321C122.57 32.1101 121.82 31.2885 121.82 29.6276ZM131.339 32.2173C128.57 32.2173 126.802 30.4134 126.802 27.5558C126.802 24.7339 128.624 22.8586 131.392 22.8586C133.75 22.8586 135.214 24.1624 135.589 26.2342H133.571C133.321 25.1626 132.553 24.5017 131.357 24.5017C129.803 24.5017 128.785 25.7519 128.785 27.5558C128.785 29.3418 129.803 30.5741 131.357 30.5741C132.535 30.5741 133.321 29.8955 133.553 28.8417H135.589C135.232 30.9135 133.678 32.2173 131.339 32.2173ZM141.87 22.8586C143.906 22.8586 145.567 23.9659 145.567 27.02V32.1101H143.638V27.1807C143.638 25.4483 142.87 24.5196 141.442 24.5196C139.923 24.5196 138.995 25.6448 138.995 27.4844V32.1101H137.066V19.6081H138.995V24.2874C139.566 23.5016 140.441 22.8586 141.87 22.8586ZM151.592 32.2173C148.716 32.2173 146.912 30.3598 146.912 27.5558C146.912 24.7339 148.716 22.8586 151.413 22.8586C154.056 22.8586 155.824 24.5375 155.878 27.2165C155.878 27.4486 155.86 27.6987 155.824 27.9487H148.93V28.0737C148.984 29.6276 149.966 30.6456 151.484 30.6456C152.663 30.6456 153.521 30.0562 153.788 29.0382H155.717C155.396 30.842 153.86 32.2173 151.592 32.2173ZM149.002 26.5378H153.878C153.717 25.1804 152.77 24.4124 151.431 24.4124C150.199 24.4124 149.145 25.234 149.002 26.5378ZM156.992 29.0918H158.885C158.957 30.0383 159.778 30.717 161.171 30.717C162.368 30.717 163.154 30.2527 163.154 29.5204C163.154 28.5381 162.314 28.4667 160.904 28.2881C158.814 28.038 157.171 27.5915 157.171 25.6984C157.171 23.9659 158.725 22.8408 160.921 22.8586C163.172 22.8586 164.761 23.8945 164.886 25.7698H162.993C162.886 24.9304 162.1 24.341 160.957 24.341C159.814 24.341 159.064 24.8054 159.064 25.5376C159.064 26.3949 159.939 26.5021 161.261 26.6449C163.35 26.895 165.047 27.3236 165.047 29.3597C165.047 31.1099 163.386 32.2173 161.171 32.2173C158.725 32.2173 157.046 31.0742 156.992 29.0918ZM168.405 32.1101L165.423 22.9658H167.459L169.548 29.9669L171.638 22.9658H173.406L175.406 29.9669L177.567 22.9658H179.532L176.496 32.1101H174.424L172.495 25.8948L170.495 32.1101H168.405ZM184.555 32.2173C181.769 32.2173 179.894 30.342 179.894 27.5379C179.894 24.7518 181.769 22.8586 184.555 22.8586C187.342 22.8586 189.217 24.7518 189.217 27.5379C189.217 30.342 187.342 32.2173 184.555 32.2173ZM184.555 30.5741C186.181 30.5741 187.252 29.3061 187.252 27.5379C187.252 25.7698 186.181 24.5017 184.555 24.5017C182.93 24.5017 181.876 25.7698 181.876 27.5379C181.876 29.3061 182.93 30.5741 184.555 30.5741ZM195.394 22.9658H195.822V24.7696H194.965C193.25 24.7696 192.697 26.1091 192.697 27.5201V32.1101H190.768V22.9658H192.483L192.697 24.341C193.161 23.573 193.893 22.9658 195.394 22.9658ZM197.012 32.1101V19.6081H198.941V32.1101H197.012ZM207.779 24.2338V19.6081H209.708V32.1101H208.029L207.797 30.7349C207.208 31.5386 206.261 32.2173 204.814 32.2173C202.332 32.2173 200.492 30.467 200.492 27.5379C200.492 24.7161 202.332 22.8586 204.814 22.8586C206.208 22.8586 207.19 23.4301 207.779 24.2338ZM205.136 30.592C206.743 30.592 207.797 29.3418 207.797 27.5737C207.797 25.7519 206.743 24.5017 205.136 24.5017C203.529 24.5017 202.475 25.7519 202.475 27.5379C202.475 29.3418 203.529 30.592 205.136 30.592Z" fill="black"/>
<path d="M79.1161 44.7807V43.6805H86.1744V44.5235L81.2593 53.6821H79.9591L84.8599 44.7807H79.1161ZM90.6854 46.9811C92.6428 46.9811 94.0002 48.3527 94.0002 50.3387C94.0002 52.5534 92.3714 53.7536 90.4996 53.7536C88.2707 53.7536 86.9848 52.3105 86.8848 50.5673H88.0707C88.185 51.7247 89.0566 52.682 90.4996 52.682C91.6713 52.682 92.7714 51.8961 92.7714 50.353C92.7714 48.9957 91.8999 48.0384 90.5139 48.0384C89.8996 48.0384 88.6708 48.2098 88.2421 49.3957L87.0848 49.3672L87.4134 43.6805H93.4001V44.7807H88.5136L88.285 47.9384C88.8994 47.2097 89.7567 46.9811 90.6854 46.9811ZM95.2198 46.0238C95.2198 44.6092 96.2914 43.5948 97.7345 43.5948C99.1776 43.5948 100.249 44.6092 100.249 46.0238C100.249 47.4097 99.1776 48.4241 97.7345 48.4241C96.2914 48.4241 95.2198 47.4097 95.2198 46.0238ZM98.0631 53.6821H96.9058L103.721 43.6805H104.879L98.0631 53.6821ZM99.1919 46.0238C99.1919 45.1665 98.5775 44.5378 97.7345 44.5378C96.8915 44.5378 96.2771 45.1665 96.2771 46.0238C96.2771 46.8668 96.8915 47.4811 97.7345 47.4811C98.5775 47.4811 99.1919 46.8668 99.1919 46.0238ZM101.507 51.3675C101.507 49.953 102.578 48.9385 104.021 48.9385C105.464 48.9385 106.536 49.953 106.536 51.3675C106.536 52.7534 105.464 53.7679 104.021 53.7679C102.578 53.7679 101.507 52.7534 101.507 51.3675ZM105.479 51.3675C105.479 50.5102 104.864 49.8815 104.021 49.8815C103.178 49.8815 102.564 50.5102 102.564 51.3675C102.564 52.2105 103.178 52.8248 104.021 52.8248C104.864 52.8248 105.479 52.2105 105.479 51.3675ZM115.21 53.7679C113.081 53.7679 111.595 52.2533 111.595 50.0387C111.595 47.824 113.081 46.3095 115.21 46.3095C117.339 46.3095 118.825 47.824 118.825 50.0387C118.825 52.2533 117.339 53.7679 115.21 53.7679ZM115.21 52.7248C116.653 52.7248 117.625 51.5961 117.625 50.0387C117.625 48.4813 116.653 47.3525 115.21 47.3525C113.767 47.3525 112.796 48.4813 112.796 50.0387C112.796 51.5961 113.767 52.7248 115.21 52.7248ZM123.541 46.3952H123.869V47.5383H123.283C121.755 47.5383 121.34 48.8099 121.34 49.9672V53.6821H120.169V46.3952H121.183L121.34 47.4954C121.683 46.9382 122.24 46.3952 123.541 46.3952ZM125.485 45.1665C125.056 45.1665 124.728 44.8521 124.728 44.4092C124.728 43.9663 125.056 43.652 125.485 43.652C125.914 43.652 126.242 43.9663 126.242 44.4092C126.242 44.8521 125.914 45.1665 125.485 45.1665ZM124.885 53.6821V46.3952H126.056V53.6821H124.885ZM133.405 47.6526L133.562 46.3952H134.577V53.3249C134.577 55.4253 133.462 56.6255 130.962 56.6255C129.105 56.6255 127.804 55.7539 127.619 54.1536H128.819C129.019 55.0681 129.833 55.5824 131.048 55.5824C132.577 55.5824 133.405 54.868 133.405 53.2821V52.4248C132.919 53.2535 132.134 53.7679 130.905 53.7679C128.89 53.7679 127.404 52.4105 127.404 50.0387C127.404 47.8098 128.89 46.3095 130.905 46.3095C132.134 46.3095 132.948 46.8382 133.405 47.6526ZM131.019 52.7248C132.448 52.7248 133.42 51.6247 133.42 50.0673C133.42 48.467 132.448 47.3525 131.019 47.3525C129.576 47.3525 128.605 48.4527 128.605 50.0387C128.605 51.6247 129.576 52.7248 131.019 52.7248ZM136.773 45.1665C136.344 45.1665 136.016 44.8521 136.016 44.4092C136.016 43.9663 136.344 43.652 136.773 43.652C137.202 43.652 137.53 43.9663 137.53 44.4092C137.53 44.8521 137.202 45.1665 136.773 45.1665ZM136.173 53.6821V46.3952H137.345V53.6821H136.173ZM142.522 46.3095C144.165 46.3095 145.465 47.2097 145.465 49.6243V53.6821H144.293V49.6958C144.293 48.1812 143.593 47.3811 142.322 47.3811C140.95 47.3811 140.121 48.3956 140.121 50.0387V53.6821H138.95V46.3952H139.964L140.121 47.3811C140.55 46.8239 141.293 46.3095 142.522 46.3095ZM153.403 52.6105H153.774V53.6821H153.131C152.16 53.6821 151.831 53.2678 151.817 52.5534C151.359 53.2106 150.631 53.7679 149.373 53.7679C147.773 53.7679 146.687 52.9677 146.687 51.6389C146.687 50.1816 147.702 49.3672 149.616 49.3672H151.759V48.8671C151.759 47.9241 151.088 47.3525 149.945 47.3525C148.916 47.3525 148.23 47.8383 148.087 48.5813H146.916C147.087 47.1525 148.245 46.3095 150.002 46.3095C151.859 46.3095 152.931 47.2382 152.931 48.9385V52.1247C152.931 52.5105 153.074 52.6105 153.403 52.6105ZM151.759 50.7102V50.353H149.502C148.459 50.353 147.873 50.7388 147.873 51.5675C147.873 52.2819 148.487 52.7677 149.459 52.7677C150.916 52.7677 151.759 51.9247 151.759 50.7102ZM154.675 53.6821V43.6805H155.846V53.6821H154.675ZM169.321 46.3095C170.835 46.3095 172.078 47.1811 172.078 49.4815V53.6821H170.907V49.5529C170.907 48.1241 170.278 47.3811 169.178 47.3811C167.963 47.3811 167.22 48.2956 167.22 49.7815V53.6821H166.049V49.5529C166.049 48.1241 165.406 47.3811 164.291 47.3811C163.091 47.3811 162.362 48.3813 162.362 49.8387V53.6821H161.191V46.3952H162.205L162.362 47.3954C162.748 46.8668 163.363 46.3095 164.491 46.3095C165.506 46.3095 166.377 46.7667 166.792 47.6955C167.235 46.9096 168.021 46.3095 169.321 46.3095ZM180.025 52.6105H180.397V53.6821H179.754C178.782 53.6821 178.453 53.2678 178.439 52.5534C177.982 53.2106 177.253 53.7679 175.996 53.7679C174.396 53.7679 173.31 52.9677 173.31 51.6389C173.31 50.1816 174.324 49.3672 176.239 49.3672H178.382V48.8671C178.382 47.9241 177.71 47.3525 176.567 47.3525C175.539 47.3525 174.853 47.8383 174.71 48.5813H173.538C173.71 47.1525 174.867 46.3095 176.625 46.3095C178.482 46.3095 179.554 47.2382 179.554 48.9385V52.1247C179.554 52.5105 179.697 52.6105 180.025 52.6105ZM178.382 50.7102V50.353H176.125C175.081 50.353 174.496 50.7388 174.496 51.5675C174.496 52.2819 175.11 52.7677 176.082 52.7677C177.539 52.7677 178.382 51.9247 178.382 50.7102ZM181.84 51.7818V47.4668H180.526V46.3952H181.84V44.3521H183.012V46.3952H184.898V47.4668H183.012V51.7675C183.012 52.3819 183.226 52.6105 183.855 52.6105H185.012V53.6821H183.741C182.34 53.6821 181.84 53.0677 181.84 51.7818ZM189.118 53.7679C186.989 53.7679 185.589 52.3248 185.589 50.053C185.589 47.824 187.032 46.3095 189.147 46.3095C190.933 46.3095 192.061 47.3097 192.361 48.9099H191.133C190.918 47.9384 190.204 47.3525 189.132 47.3525C187.732 47.3525 186.789 48.467 186.789 50.053C186.789 51.6389 187.732 52.7248 189.132 52.7248C190.175 52.7248 190.89 52.1247 191.118 51.196H192.361C192.076 52.7677 190.89 53.7679 189.118 53.7679ZM197.218 46.3095C198.847 46.3095 200.175 47.2097 200.175 49.6243V53.6821H199.004V49.6958C199.004 48.1812 198.275 47.3811 197.018 47.3811C195.66 47.3811 194.817 48.3956 194.817 50.0387V53.6821H193.646V43.6805H194.817V47.5954C195.246 46.9096 195.989 46.3095 197.218 46.3095Z" fill="#03BC00"/>
<path d="M279.929 38.4414V37.5841L284.01 32.3947H285.084V37.5613H286.376V38.4414H285.084V40.396H284.124V38.4414H279.929ZM284.124 33.572L281.003 37.5613H284.124V33.572ZM289.987 34.4979C291.29 34.4979 292.353 35.218 292.353 37.1498V40.396H291.415V37.2069C291.415 35.9953 290.832 35.3552 289.827 35.3552C288.741 35.3552 288.066 36.1667 288.066 37.4812V40.396H287.129V32.3947H288.066V35.5266C288.409 34.978 289.004 34.4979 289.987 34.4979ZM296.245 34.5665H296.508V35.4809H296.039C294.816 35.4809 294.485 36.4982 294.485 37.4241V40.396H293.547V34.5665H294.359L294.485 35.4466C294.759 35.0008 295.205 34.5665 296.245 34.5665ZM296.958 38.4757H297.918C297.952 39.1615 298.558 39.6645 299.529 39.6645C300.352 39.6645 300.935 39.3101 300.935 38.7729C300.935 38.0413 300.295 37.9842 299.427 37.8813C298.123 37.7213 297.083 37.4584 297.083 36.2468C297.083 35.1837 298.055 34.4865 299.369 34.4979C300.695 34.5093 301.655 35.1266 301.747 36.3382H300.787C300.718 35.7438 300.17 35.298 299.369 35.298C298.558 35.298 298.009 35.6409 298.009 36.1782C298.009 36.8183 298.626 36.8983 299.472 37.0012C300.798 37.1612 301.861 37.4127 301.861 38.7043C301.861 39.7902 300.821 40.4646 299.529 40.4646C298.021 40.4646 296.98 39.7559 296.958 38.4757ZM305.505 40.396V39.5844L308.614 36.8869C309.357 36.2468 309.974 35.6295 309.974 34.7608C309.974 33.7549 309.288 33.1834 308.225 33.1834C307.196 33.1834 306.51 33.8692 306.51 34.9666V35.1152H305.55V34.9094C305.55 33.4006 306.613 32.3261 308.225 32.3261C309.951 32.3261 310.957 33.2749 310.957 34.7151C310.957 35.9153 310.18 36.6697 309.231 37.4812L306.83 39.5159H311.014V40.396H305.505ZM311.622 40.396V39.5844L314.731 36.8869C315.474 36.2468 316.091 35.6295 316.091 34.7608C316.091 33.7549 315.405 33.1834 314.342 33.1834C313.313 33.1834 312.627 33.8692 312.627 34.9666V35.1152H311.667V34.9094C311.667 33.4006 312.73 32.3261 314.342 32.3261C316.068 32.3261 317.074 33.2749 317.074 34.7151C317.074 35.9153 316.297 36.6697 315.348 37.4812L312.948 39.5159H317.131V40.396H311.622ZM324.631 34.4979C325.843 34.4979 326.837 35.1952 326.837 37.0355V40.396H325.9V37.0926C325.9 35.9496 325.397 35.3552 324.517 35.3552C323.545 35.3552 322.951 36.0867 322.951 37.2755V40.396H322.014V37.0926C322.014 35.9496 321.499 35.3552 320.608 35.3552C319.648 35.3552 319.065 36.1553 319.065 37.3212V40.396H318.127V34.5665H318.939L319.065 35.3666C319.373 34.9437 319.865 34.4979 320.768 34.4979C321.579 34.4979 322.277 34.8637 322.608 35.6067C322.962 34.978 323.591 34.4979 324.631 34.4979ZM328.52 33.5835C328.177 33.5835 327.914 33.332 327.914 32.9777C327.914 32.6233 328.177 32.3719 328.52 32.3719C328.863 32.3719 329.125 32.6233 329.125 32.9777C329.125 33.332 328.863 33.5835 328.52 33.5835ZM328.04 40.396V34.5665H328.977V40.396H328.04ZM333.119 34.4979C334.433 34.4979 335.473 35.218 335.473 37.1498V40.396H334.536V37.2069C334.536 35.9953 333.976 35.3552 332.959 35.3552C331.861 35.3552 331.198 36.1667 331.198 37.4812V40.396H330.261V34.5665H331.073L331.198 35.3552C331.541 34.9094 332.136 34.4979 333.119 34.4979ZM342.357 34.5665H342.62V35.4809H342.152C340.929 35.4809 340.597 36.4982 340.597 37.4241V40.396H339.66V34.5665H340.471L340.597 35.4466C340.871 35.0008 341.317 34.5665 342.357 34.5665ZM345.784 40.4646C344.035 40.4646 342.892 39.2644 342.892 37.4812C342.892 35.7095 344.012 34.4979 345.658 34.4979C347.304 34.4979 348.379 35.5381 348.424 37.2641C348.424 37.3898 348.413 37.527 348.402 37.6641H343.875V37.7441C343.909 38.8529 344.607 39.6302 345.715 39.6302C346.538 39.6302 347.178 39.1958 347.373 38.4414H348.322C348.093 39.6073 347.133 40.4646 345.784 40.4646ZM343.932 36.8869H347.419C347.327 35.881 346.641 35.3209 345.67 35.3209C344.812 35.3209 344.024 35.9381 343.932 36.8869ZM355.998 34.4979C357.209 34.4979 358.204 35.1952 358.204 37.0355V40.396H357.267V37.0926C357.267 35.9496 356.764 35.3552 355.884 35.3552C354.912 35.3552 354.318 36.0867 354.318 37.2755V40.396H353.38V37.0926C353.38 35.9496 352.866 35.3552 351.974 35.3552C351.014 35.3552 350.431 36.1553 350.431 37.3212V40.396H349.494V34.5665H350.305L350.431 35.3666C350.74 34.9437 351.231 34.4979 352.134 34.4979C352.946 34.4979 353.643 34.8637 353.975 35.6067C354.329 34.978 354.958 34.4979 355.998 34.4979ZM364.561 39.5387H364.859V40.396H364.344C363.567 40.396 363.304 40.0645 363.293 39.493C362.927 40.0188 362.344 40.4646 361.338 40.4646C360.058 40.4646 359.189 39.8245 359.189 38.7614C359.189 37.5955 360.001 36.944 361.532 36.944H363.247V36.544C363.247 35.7895 362.71 35.3323 361.795 35.3323C360.972 35.3323 360.424 35.721 360.309 36.3153H359.372C359.509 35.1723 360.435 34.4979 361.841 34.4979C363.327 34.4979 364.184 35.2409 364.184 36.6011V39.1501C364.184 39.4587 364.298 39.5387 364.561 39.5387ZM363.247 38.0185V37.7327H361.441C360.606 37.7327 360.138 38.0413 360.138 38.7043C360.138 39.2758 360.629 39.6645 361.407 39.6645C362.572 39.6645 363.247 38.9901 363.247 38.0185ZM366.059 33.5835C365.716 33.5835 365.453 33.332 365.453 32.9777C365.453 32.6233 365.716 32.3719 366.059 32.3719C366.402 32.3719 366.665 32.6233 366.665 32.9777C366.665 33.332 366.402 33.5835 366.059 33.5835ZM365.579 40.396V34.5665H366.516V40.396H365.579ZM370.658 34.4979C371.973 34.4979 373.013 35.218 373.013 37.1498V40.396H372.075V37.2069C372.075 35.9953 371.515 35.3552 370.498 35.3552C369.401 35.3552 368.738 36.1667 368.738 37.4812V40.396H367.8V34.5665H368.612L368.738 35.3552C369.081 34.9094 369.675 34.4979 370.658 34.4979ZM374.688 33.5835C374.345 33.5835 374.082 33.332 374.082 32.9777C374.082 32.6233 374.345 32.3719 374.688 32.3719C375.031 32.3719 375.294 32.6233 375.294 32.9777C375.294 33.332 375.031 33.5835 374.688 33.5835ZM374.208 40.396V34.5665H375.145V40.396H374.208ZM379.287 34.4979C380.601 34.4979 381.641 35.218 381.641 37.1498V40.396H380.704V37.2069C380.704 35.9953 380.144 35.3552 379.127 35.3552C378.029 35.3552 377.366 36.1667 377.366 37.4812V40.396H376.429V34.5665H377.241L377.366 35.3552C377.709 34.9094 378.304 34.4979 379.287 34.4979ZM387.431 35.5724L387.557 34.5665H388.369V40.1102C388.369 41.7905 387.477 42.7507 385.477 42.7507C383.991 42.7507 382.951 42.0534 382.802 40.7732H383.762C383.922 41.5047 384.574 41.9162 385.545 41.9162C386.768 41.9162 387.431 41.3447 387.431 40.0759V39.3901C387.043 40.0531 386.414 40.4646 385.431 40.4646C383.819 40.4646 382.631 39.3787 382.631 37.4812C382.631 35.6981 383.819 34.4979 385.431 34.4979C386.414 34.4979 387.066 34.9208 387.431 35.5724ZM385.522 39.6302C386.666 39.6302 387.443 38.75 387.443 37.5041C387.443 36.2239 386.666 35.3323 385.522 35.3323C384.368 35.3323 383.591 36.2125 383.591 37.4812C383.591 38.75 384.368 39.6302 385.522 39.6302Z" fill="#A8A8A8"/>
<defs>
<clipPath id="clip0_468_12345">
<rect width="42.864" height="42.864" fill="white" transform="translate(21.8643 14.4641)"/>
</clipPath>
<clipPath id="clip1_468_12345">
<rect width="8.5728" height="8.5728" fill="white" transform="translate(54.1484 46.748)"/>
</clipPath>
<clipPath id="clip2_468_12345">
<rect width="8.5728" height="8.5728" fill="white" transform="translate(54.1484 46.748)"/>
</clipPath>
</defs>
</svg>
