<svg width="412" height="72" viewBox="0 0 412 72" fill="none" xmlns="http://www.w3.org/2000/svg">
<rect x="0.432129" y="0.0478516" width="410.78" height="71.44" rx="17.86" fill="#F5F5F5"/>
<g clip-path="url(#clip0_468_12353)">
<path d="M21.8643 35.7679C21.8643 23.9314 31.4597 14.3359 43.2963 14.3359V14.3359C55.1328 14.3359 64.7283 23.9314 64.7283 35.7679V35.7679C64.7283 47.6045 55.1328 57.1999 43.2963 57.1999V57.1999C31.4597 57.1999 21.8643 47.6045 21.8643 35.7679V35.7679Z" fill="#EEE7FA"/>
<path d="M39.2214 42.2678V30.2659H43.8164C46.2168 30.2659 47.8113 31.7061 47.8113 33.9522C47.8113 35.6325 46.7997 36.9355 45.2566 37.3642L47.9485 42.2678H46.2682L43.7307 37.6557H40.713V42.2678H39.2214ZM43.7135 31.6375H40.713V36.284H43.6964C45.2738 36.284 46.2854 35.3581 46.2854 33.9522C46.2854 32.5463 45.2738 31.6375 43.7135 31.6375Z" fill="#250557"/>
<path d="M52.0054 50.9062C52.0054 47.3552 54.884 44.4766 58.435 44.4766V44.4766C61.9859 44.4766 64.8646 47.3552 64.8646 50.9062V50.9062C64.8646 54.4571 61.9859 57.3358 58.435 57.3358V57.3358C54.884 57.3358 52.0054 54.4571 52.0054 50.9062V50.9062Z" fill="#590DCF"/>
<g clip-path="url(#clip1_468_12353)">
<g clip-path="url(#clip2_468_12353)">
<path d="M55.2202 50.5492L58.0778 53.0496L62.007 48.7632" stroke="white" stroke-width="0.5358" stroke-linecap="round" stroke-linejoin="round"/>
</g>
</g>
</g>
<path d="M79.8734 27.6241C79.8734 23.1234 83.5704 19.8371 88.1426 19.8371C92.6076 19.8371 95.6974 22.534 95.6974 26.3382C95.6974 29.1958 93.9828 31.1247 91.661 31.1247C90.5537 31.1247 89.8571 30.4996 89.7321 29.7494L89.6964 29.4994C89.2499 30.4817 88.1962 31.1068 86.9638 31.1068C85.285 31.1068 83.8383 29.7852 83.8383 27.6955C83.8383 25.3916 85.4814 23.5877 87.4996 23.5877C88.8213 23.5877 89.6071 24.1593 89.8214 24.8379L90.125 23.7306H91.6431L91.1073 28.7671C91.018 29.5708 91.3574 29.8745 92.0003 29.8745C93.0898 29.8745 94.09 28.3564 94.09 26.2846C94.09 23.2127 91.7503 21.1766 88.1069 21.1766C84.2134 21.1766 81.4629 23.9807 81.4629 27.5884C81.4629 31.2675 83.8026 33.4107 87.9461 33.4107C89.4642 33.4107 90.8394 33.0535 91.9646 32.3927L91.911 33.8572C91.018 34.4109 89.4999 34.786 87.7854 34.786C83.1775 34.786 79.8734 32.0177 79.8734 27.6241ZM89.6428 26.874C89.6428 25.6416 88.9106 24.963 87.8925 24.963C86.6066 24.963 85.6243 26.1596 85.6243 27.5884C85.6243 28.8922 86.3923 29.6959 87.4282 29.6959C88.6427 29.6959 89.6428 28.6064 89.6428 26.874ZM102.117 22.8376H102.546V24.6415H101.688C99.9738 24.6415 99.4202 25.981 99.4202 27.3919V31.9819H97.4913V22.8376H99.2059L99.4202 24.2128C99.8845 23.4449 100.617 22.8376 102.117 22.8376ZM107.621 32.0891C104.835 32.0891 102.96 30.2138 102.96 27.4098C102.96 24.6236 104.835 22.7305 107.621 22.7305C110.408 22.7305 112.283 24.6236 112.283 27.4098C112.283 30.2138 110.408 32.0891 107.621 32.0891ZM107.621 30.446C109.247 30.446 110.318 29.1779 110.318 27.4098C110.318 25.6416 109.247 24.3736 107.621 24.3736C105.996 24.3736 104.942 25.6416 104.942 27.4098C104.942 29.1779 105.996 30.446 107.621 30.446ZM113.834 31.9819V19.4799H115.763V31.9819H113.834ZM118.636 21.5517C117.975 21.5517 117.457 21.0695 117.457 20.3908C117.457 19.7121 117.975 19.2299 118.636 19.2299C119.297 19.2299 119.815 19.7121 119.815 20.3908C119.815 21.0695 119.297 21.5517 118.636 21.5517ZM117.654 31.9819V22.8376H119.582V31.9819H117.654ZM125.813 32.0891C122.938 32.0891 121.134 30.2317 121.134 27.4276C121.134 24.6058 122.938 22.7305 125.635 22.7305C128.278 22.7305 130.046 24.4093 130.1 27.0883C130.1 27.3205 130.082 27.5705 130.046 27.8206H123.152V27.9456C123.206 29.4994 124.188 30.5174 125.706 30.5174C126.885 30.5174 127.742 29.928 128.01 28.91H129.939C129.617 30.7139 128.081 32.0891 125.813 32.0891ZM123.224 26.4096H128.099C127.939 25.0523 126.992 24.2843 125.652 24.2843C124.42 24.2843 123.366 25.1058 123.224 26.4096ZM136.553 22.7305C139.053 22.7305 140.875 24.4807 140.875 27.4098C140.875 30.2317 139.053 32.0891 136.553 32.0891C135.142 32.0891 134.159 31.5176 133.588 30.696V35.5539H131.659V22.8376H133.338L133.57 24.195C134.177 23.3913 135.124 22.7305 136.553 22.7305ZM136.231 30.4638C137.839 30.4638 138.91 29.1958 138.91 27.4098C138.91 25.6059 137.839 24.3736 136.231 24.3736C134.624 24.3736 133.57 25.6059 133.57 27.3741C133.57 29.1958 134.624 30.4638 136.231 30.4638ZM146.742 32.0891C143.956 32.0891 142.081 30.2138 142.081 27.4098C142.081 24.6236 143.956 22.7305 146.742 22.7305C149.529 22.7305 151.404 24.6236 151.404 27.4098C151.404 30.2138 149.529 32.0891 146.742 32.0891ZM146.742 30.446C148.368 30.446 149.439 29.1779 149.439 27.4098C149.439 25.6416 148.368 24.3736 146.742 24.3736C145.117 24.3736 144.063 25.6416 144.063 27.4098C144.063 29.1779 145.117 30.446 146.742 30.446ZM152.955 31.9819V19.4799H154.884V31.9819H152.955ZM156.775 31.9819V19.4799H158.704V31.9819H156.775ZM163.238 32.0355L159.683 22.8376H161.737L164.291 29.7852L166.774 22.8376H168.828L164.684 33.4107C164.113 34.8931 163.72 35.5539 162.38 35.5539H160.309V33.8572H161.666C162.416 33.8572 162.595 33.6786 162.88 32.9285L163.238 32.0355Z" fill="black"/>
<path d="M80.4163 51.9823C79.9163 51.1107 79.6305 49.9105 79.6305 48.596C79.6305 45.4527 81.045 43.4666 83.4311 43.4666C85.2457 43.4666 86.4887 44.5525 86.7316 46.2242H85.5314C85.3028 45.2098 84.5884 44.5239 83.374 44.5239C81.6308 44.5239 80.6735 46.1099 80.6735 48.3674C80.6735 48.5103 80.6735 48.6103 80.6878 48.8532C80.7021 48.7961 80.7164 48.7103 80.7735 48.5817C81.2165 47.5959 82.2166 46.9386 83.5597 46.9386C85.5314 46.9386 86.9174 48.2388 86.9174 50.282C86.9174 52.2109 85.5029 53.6397 83.4454 53.6397C82.0595 53.6397 81.045 53.011 80.4163 51.9823ZM85.7172 50.282C85.7172 48.9532 84.8599 47.9959 83.474 47.9959C82.088 47.9959 81.145 48.9389 81.145 50.3106C81.145 51.6537 82.0595 52.5824 83.4311 52.5824C84.817 52.5824 85.7172 51.6251 85.7172 50.282ZM88.0861 48.7818V48.3245C88.0861 45.4812 89.6292 43.4666 91.8867 43.4666C94.1299 43.4666 95.673 45.4812 95.673 48.3245V48.7818C95.673 51.768 94.1299 53.6397 91.8867 53.6397C89.6292 53.6397 88.0861 51.768 88.0861 48.7818ZM94.4585 48.7389V48.3674C94.4585 45.9956 93.4298 44.5668 91.8867 44.5668C90.3293 44.5668 89.3006 45.9956 89.3006 48.3674V48.7389C89.3006 51.1107 90.3293 52.5395 91.8867 52.5395C93.4298 52.5395 94.4585 51.1107 94.4585 48.7389ZM97.0616 45.8956C97.0616 44.4811 98.1332 43.4666 99.5763 43.4666C101.019 43.4666 102.091 44.4811 102.091 45.8956C102.091 47.2815 101.019 48.296 99.5763 48.296C98.1332 48.296 97.0616 47.2815 97.0616 45.8956ZM99.9049 53.554H98.7476L105.563 43.5524H106.72L99.9049 53.554ZM101.034 45.8956C101.034 45.0383 100.419 44.4096 99.5763 44.4096C98.7333 44.4096 98.1189 45.0383 98.1189 45.8956C98.1189 46.7386 98.7333 47.353 99.5763 47.353C100.419 47.353 101.034 46.7386 101.034 45.8956ZM103.348 51.2393C103.348 49.8248 104.42 48.8103 105.863 48.8103C107.306 48.8103 108.378 49.8248 108.378 51.2393C108.378 52.6252 107.306 53.6397 105.863 53.6397C104.42 53.6397 103.348 52.6252 103.348 51.2393ZM107.32 51.2393C107.32 50.382 106.706 49.7533 105.863 49.7533C105.02 49.7533 104.406 50.382 104.406 51.2393C104.406 52.0823 105.02 52.6967 105.863 52.6967C106.706 52.6967 107.32 52.0823 107.32 51.2393ZM117.052 53.6397C114.923 53.6397 113.437 52.1252 113.437 49.9105C113.437 47.6959 114.923 46.1813 117.052 46.1813C119.181 46.1813 120.667 47.6959 120.667 49.9105C120.667 52.1252 119.181 53.6397 117.052 53.6397ZM117.052 52.5967C118.495 52.5967 119.467 51.4679 119.467 49.9105C119.467 48.3531 118.495 47.2244 117.052 47.2244C115.609 47.2244 114.637 48.3531 114.637 49.9105C114.637 51.4679 115.609 52.5967 117.052 52.5967ZM125.382 46.2671H125.711V47.4101H125.125C123.596 47.4101 123.182 48.6817 123.182 49.8391V53.554H122.01V46.2671H123.025L123.182 47.3673C123.525 46.81 124.082 46.2671 125.382 46.2671ZM127.327 45.0383C126.898 45.0383 126.569 44.724 126.569 44.281C126.569 43.8381 126.898 43.5238 127.327 43.5238C127.755 43.5238 128.084 43.8381 128.084 44.281C128.084 44.724 127.755 45.0383 127.327 45.0383ZM126.727 53.554V46.2671H127.898V53.554H126.727ZM135.247 47.5244L135.404 46.2671H136.419V53.1968C136.419 55.2971 135.304 56.4973 132.804 56.4973C130.946 56.4973 129.646 55.6257 129.46 54.0255H130.661C130.861 54.9399 131.675 55.4543 132.89 55.4543C134.418 55.4543 135.247 54.7399 135.247 53.1539V52.2966C134.761 53.1253 133.975 53.6397 132.747 53.6397C130.732 53.6397 129.246 52.2823 129.246 49.9105C129.246 47.6816 130.732 46.1813 132.747 46.1813C133.975 46.1813 134.79 46.71 135.247 47.5244ZM132.861 52.5967C134.29 52.5967 135.261 51.4965 135.261 49.9391C135.261 48.3388 134.29 47.2244 132.861 47.2244C131.418 47.2244 130.446 48.3245 130.446 49.9105C130.446 51.4965 131.418 52.5967 132.861 52.5967ZM138.615 45.0383C138.186 45.0383 137.858 44.724 137.858 44.281C137.858 43.8381 138.186 43.5238 138.615 43.5238C139.043 43.5238 139.372 43.8381 139.372 44.281C139.372 44.724 139.043 45.0383 138.615 45.0383ZM138.015 53.554V46.2671H139.186V53.554H138.015ZM144.363 46.1813C146.007 46.1813 147.307 47.0815 147.307 49.4962V53.554H146.135V49.5676C146.135 48.0531 145.435 47.2529 144.163 47.2529C142.792 47.2529 141.963 48.2674 141.963 49.9105V53.554H140.791V46.2671H141.806L141.963 47.2529C142.392 46.6957 143.135 46.1813 144.363 46.1813ZM155.244 52.4824H155.616V53.554H154.973C154.001 53.554 153.673 53.1396 153.658 52.4252C153.201 53.0825 152.473 53.6397 151.215 53.6397C149.615 53.6397 148.529 52.8396 148.529 51.5108C148.529 50.0534 149.543 49.239 151.458 49.239H153.601V48.7389C153.601 47.7959 152.93 47.2244 151.787 47.2244C150.758 47.2244 150.072 47.7102 149.929 48.4531H148.758C148.929 47.0243 150.086 46.1813 151.844 46.1813C153.701 46.1813 154.773 47.1101 154.773 48.8103V51.9966C154.773 52.3823 154.916 52.4824 155.244 52.4824ZM153.601 50.5821V50.2249H151.344C150.301 50.2249 149.715 50.6106 149.715 51.4393C149.715 52.1537 150.329 52.6395 151.301 52.6395C152.758 52.6395 153.601 51.7965 153.601 50.5821ZM156.517 53.554V43.5524H157.688V53.554H156.517ZM171.163 46.1813C172.677 46.1813 173.92 47.0529 173.92 49.3533V53.554H172.749V49.4247C172.749 47.9959 172.12 47.2529 171.02 47.2529C169.805 47.2529 169.062 48.1674 169.062 49.6533V53.554H167.891V49.4247C167.891 47.9959 167.248 47.2529 166.133 47.2529C164.933 47.2529 164.204 48.2531 164.204 49.7105V53.554H163.033V46.2671H164.047L164.204 47.2672C164.59 46.7386 165.204 46.1813 166.333 46.1813C167.348 46.1813 168.219 46.6386 168.634 47.5673C169.077 46.7814 169.862 46.1813 171.163 46.1813ZM181.867 52.4824H182.238V53.554H181.595C180.624 53.554 180.295 53.1396 180.281 52.4252C179.824 53.0825 179.095 53.6397 177.838 53.6397C176.237 53.6397 175.152 52.8396 175.152 51.5108C175.152 50.0534 176.166 49.239 178.081 49.239H180.224V48.7389C180.224 47.7959 179.552 47.2244 178.409 47.2244C177.381 47.2244 176.695 47.7102 176.552 48.4531H175.38C175.552 47.0243 176.709 46.1813 178.466 46.1813C180.324 46.1813 181.395 47.1101 181.395 48.8103V51.9966C181.395 52.3823 181.538 52.4824 181.867 52.4824ZM180.224 50.5821V50.2249H177.966C176.923 50.2249 176.337 50.6106 176.337 51.4393C176.337 52.1537 176.952 52.6395 177.923 52.6395C179.381 52.6395 180.224 51.7965 180.224 50.5821ZM183.682 51.6537V47.3387H182.368V46.2671H183.682V44.2239H184.854V46.2671H186.74V47.3387H184.854V51.6394C184.854 52.2537 185.068 52.4824 185.697 52.4824H186.854V53.554H185.582C184.182 53.554 183.682 52.9396 183.682 51.6537ZM190.96 53.6397C188.831 53.6397 187.431 52.1966 187.431 49.9248C187.431 47.6959 188.874 46.1813 190.988 46.1813C192.774 46.1813 193.903 47.1815 194.203 48.7818H192.974C192.76 47.8102 192.046 47.2244 190.974 47.2244C189.574 47.2244 188.631 48.3388 188.631 49.9248C188.631 51.5108 189.574 52.5967 190.974 52.5967C192.017 52.5967 192.732 51.9966 192.96 51.0678H194.203C193.917 52.6395 192.732 53.6397 190.96 53.6397ZM199.06 46.1813C200.688 46.1813 202.017 47.0815 202.017 49.4962V53.554H200.846V49.5676C200.846 48.0531 200.117 47.2529 198.86 47.2529C197.502 47.2529 196.659 48.2674 196.659 49.9105V53.554H195.488V43.5524H196.659V47.4673C197.088 46.7814 197.831 46.1813 199.06 46.1813Z" fill="#F9A825"/>
<path d="M283.689 33.1353V32.2665H284.626V40.2678H283.666V34.5298C283.552 34.6326 283.369 34.6784 283.118 34.6784H281.826V33.8211H283.129C283.506 33.8211 283.689 33.5353 283.689 33.1353ZM285.911 36.4501V36.0843C285.911 33.8096 287.145 32.198 288.951 32.198C290.746 32.198 291.98 33.8096 291.98 36.0843V36.4501C291.98 38.839 290.746 40.3364 288.951 40.3364C287.145 40.3364 285.911 38.839 285.911 36.4501ZM291.009 36.4158V36.1186C291.009 34.2211 290.186 33.0781 288.951 33.0781C287.705 33.0781 286.882 34.2211 286.882 36.1186V36.4158C286.882 38.3132 287.705 39.4563 288.951 39.4563C290.186 39.4563 291.009 38.3132 291.009 36.4158ZM295.972 34.3697C297.275 34.3697 298.338 35.0899 298.338 37.0216V40.2678H297.4V37.0787C297.4 35.8671 296.818 35.227 295.812 35.227C294.726 35.227 294.051 36.0386 294.051 37.3531V40.2678H293.114V32.2665H294.051V35.3985C294.394 34.8498 294.989 34.3697 295.972 34.3697ZM302.23 34.4383H302.493V35.3527H302.024C300.801 35.3527 300.47 36.3701 300.47 37.2959V40.2678H299.532V34.4383H300.344L300.47 35.3185C300.744 34.8727 301.19 34.4383 302.23 34.4383ZM302.943 38.3475H303.903C303.937 39.0333 304.543 39.5363 305.514 39.5363C306.337 39.5363 306.92 39.1819 306.92 38.6447C306.92 37.9132 306.28 37.856 305.412 37.7531C304.108 37.5931 303.068 37.3302 303.068 36.1186C303.068 35.0556 304.04 34.3583 305.354 34.3697C306.68 34.3812 307.64 34.9984 307.732 36.21H306.772C306.703 35.6156 306.155 35.1699 305.354 35.1699C304.543 35.1699 303.994 35.5128 303.994 36.05C303.994 36.6901 304.611 36.7701 305.457 36.873C306.783 37.033 307.846 37.2845 307.846 38.5761C307.846 39.662 306.806 40.3364 305.514 40.3364C304.006 40.3364 302.965 39.6277 302.943 38.3475ZM315.799 36.1072C316.53 36.2443 317.296 36.8273 317.296 38.0503C317.296 39.4105 316.153 40.3364 314.416 40.3364C312.678 40.3364 311.558 39.3877 311.558 37.7989H312.507C312.518 38.8505 313.341 39.4791 314.473 39.4791C315.513 39.4791 316.313 38.8962 316.313 37.9817C316.313 37.1473 315.627 36.6101 314.381 36.6101H313.696V35.7757H314.324C315.513 35.7757 316.107 35.1813 316.107 34.3697C316.107 33.5582 315.376 33.0552 314.416 33.0552C313.41 33.0552 312.678 33.6611 312.667 34.5755H311.718C311.73 33.1695 312.827 32.198 314.404 32.198C316.05 32.198 317.09 33.0552 317.09 34.3126C317.09 35.3185 316.565 35.9014 315.799 36.1072ZM324.901 34.3697C326.113 34.3697 327.107 35.067 327.107 36.9073V40.2678H326.17V36.9644C326.17 35.8214 325.667 35.227 324.787 35.227C323.815 35.227 323.221 35.9586 323.221 37.1473V40.2678H322.283V36.9644C322.283 35.8214 321.769 35.227 320.878 35.227C319.917 35.227 319.334 36.0271 319.334 37.193V40.2678H318.397V34.4383H319.209L319.334 35.2384C319.643 34.8155 320.135 34.3697 321.038 34.3697C321.849 34.3697 322.546 34.7355 322.878 35.4785C323.232 34.8498 323.861 34.3697 324.901 34.3697ZM328.789 33.4553C328.447 33.4553 328.184 33.2038 328.184 32.8495C328.184 32.4951 328.447 32.2437 328.789 32.2437C329.132 32.2437 329.395 32.4951 329.395 32.8495C329.395 33.2038 329.132 33.4553 328.789 33.4553ZM328.309 40.2678V34.4383H329.247V40.2678H328.309ZM333.388 34.3697C334.703 34.3697 335.743 35.0899 335.743 37.0216V40.2678H334.806V37.0787C334.806 35.8671 334.246 35.227 333.228 35.227C332.131 35.227 331.468 36.0386 331.468 37.3531V40.2678H330.531V34.4383H331.342L331.468 35.227C331.811 34.7812 332.405 34.3697 333.388 34.3697ZM342.627 34.4383H342.89V35.3527H342.421C341.198 35.3527 340.867 36.3701 340.867 37.2959V40.2678H339.93V34.4383H340.741L340.867 35.3185C341.141 34.8727 341.587 34.4383 342.627 34.4383ZM346.054 40.3364C344.305 40.3364 343.162 39.1362 343.162 37.3531C343.162 35.5814 344.282 34.3697 345.928 34.3697C347.574 34.3697 348.648 35.4099 348.694 37.1359C348.694 37.2616 348.683 37.3988 348.671 37.536H344.145V37.616C344.179 38.7247 344.876 39.502 345.985 39.502C346.808 39.502 347.448 39.0676 347.643 38.3132H348.591C348.363 39.4791 347.403 40.3364 346.054 40.3364ZM344.202 36.7587H347.688C347.597 35.7528 346.911 35.1927 345.939 35.1927C345.082 35.1927 344.293 35.81 344.202 36.7587ZM356.268 34.3697C357.479 34.3697 358.474 35.067 358.474 36.9073V40.2678H357.536V36.9644C357.536 35.8214 357.033 35.227 356.153 35.227C355.182 35.227 354.587 35.9586 354.587 37.1473V40.2678H353.65V36.9644C353.65 35.8214 353.136 35.227 352.244 35.227C351.284 35.227 350.701 36.0271 350.701 37.193V40.2678H349.764V34.4383H350.575L350.701 35.2384C351.01 34.8155 351.501 34.3697 352.404 34.3697C353.216 34.3697 353.913 34.7355 354.244 35.4785C354.599 34.8498 355.227 34.3697 356.268 34.3697ZM364.831 39.4105H365.128V40.2678H364.614C363.837 40.2678 363.574 39.9363 363.562 39.3648C363.197 39.8906 362.614 40.3364 361.608 40.3364C360.328 40.3364 359.459 39.6963 359.459 38.6333C359.459 37.4674 360.27 36.8158 361.802 36.8158H363.517V36.4158C363.517 35.6614 362.979 35.2042 362.065 35.2042C361.242 35.2042 360.693 35.5928 360.579 36.1872H359.642C359.779 35.0441 360.705 34.3697 362.111 34.3697C363.597 34.3697 364.454 35.1127 364.454 36.4729V39.0219C364.454 39.3305 364.568 39.4105 364.831 39.4105ZM363.517 37.8903V37.6045H361.711C360.876 37.6045 360.408 37.9132 360.408 38.5761C360.408 39.1476 360.899 39.5363 361.676 39.5363C362.842 39.5363 363.517 38.8619 363.517 37.8903ZM366.329 33.4553C365.986 33.4553 365.723 33.2038 365.723 32.8495C365.723 32.4951 365.986 32.2437 366.329 32.2437C366.672 32.2437 366.935 32.4951 366.935 32.8495C366.935 33.2038 366.672 33.4553 366.329 33.4553ZM365.849 40.2678V34.4383H366.786V40.2678H365.849ZM370.928 34.3697C372.242 34.3697 373.283 35.0899 373.283 37.0216V40.2678H372.345V37.0787C372.345 35.8671 371.785 35.227 370.768 35.227C369.671 35.227 369.008 36.0386 369.008 37.3531V40.2678H368.07V34.4383H368.882L369.008 35.227C369.35 34.7812 369.945 34.3697 370.928 34.3697ZM374.958 33.4553C374.615 33.4553 374.352 33.2038 374.352 32.8495C374.352 32.4951 374.615 32.2437 374.958 32.2437C375.301 32.2437 375.563 32.4951 375.563 32.8495C375.563 33.2038 375.301 33.4553 374.958 33.4553ZM374.478 40.2678V34.4383H375.415V40.2678H374.478ZM379.556 34.3697C380.871 34.3697 381.911 35.0899 381.911 37.0216V40.2678H380.974V37.0787C380.974 35.8671 380.414 35.227 379.396 35.227C378.299 35.227 377.636 36.0386 377.636 37.3531V40.2678H376.699V34.4383H377.51L377.636 35.227C377.979 34.7812 378.573 34.3697 379.556 34.3697ZM387.701 35.4442L387.827 34.4383H388.638V39.9821C388.638 41.6623 387.747 42.6225 385.747 42.6225C384.261 42.6225 383.22 41.9252 383.072 40.645H384.032C384.192 41.3766 384.844 41.7881 385.815 41.7881C387.038 41.7881 387.701 41.2165 387.701 39.9478V39.2619C387.313 39.9249 386.684 40.3364 385.701 40.3364C384.089 40.3364 382.9 39.2505 382.9 37.3531C382.9 35.5699 384.089 34.3697 385.701 34.3697C386.684 34.3697 387.335 34.7927 387.701 35.4442ZM385.792 39.502C386.935 39.502 387.713 38.6218 387.713 37.3759C387.713 36.0957 386.935 35.2042 385.792 35.2042C384.638 35.2042 383.861 36.0843 383.861 37.3531C383.861 38.6218 384.638 39.502 385.792 39.502Z" fill="#A8A8A8"/>
<defs>
<clipPath id="clip0_468_12353">
<rect width="42.864" height="42.864" fill="white" transform="translate(21.8643 14.3359)"/>
</clipPath>
<clipPath id="clip1_468_12353">
<rect width="8.5728" height="8.5728" fill="white" transform="translate(54.1484 46.6199)"/>
</clipPath>
<clipPath id="clip2_468_12353">
<rect width="8.5728" height="8.5728" fill="white" transform="translate(54.1484 46.6199)"/>
</clipPath>
</defs>
</svg>
