<svg width="412" height="73" viewBox="0 0 412 73" fill="none" xmlns="http://www.w3.org/2000/svg">
<rect x="0.432129" y="0.919922" width="410.78" height="71.44" rx="17.86" fill="#F5F5F5"/>
<g clip-path="url(#clip0_468_12361)">
<path d="M21.8643 36.64C21.8643 24.8034 31.4597 15.208 43.2963 15.208V15.208C55.1328 15.208 64.7283 24.8034 64.7283 36.64V36.64C64.7283 48.4766 55.1328 58.072 43.2963 58.072V58.072C31.4597 58.072 21.8643 48.4766 21.8643 36.64V36.64Z" fill="#EEE7FA"/>
<path d="M38.7748 39.2138H40.3179C40.4379 40.8255 41.6895 41.8885 43.5241 41.8885C45.1358 41.8885 46.2845 41.1512 46.2845 39.8482C46.2845 38.3565 44.81 38.0479 42.9926 37.7393C41.0551 37.4135 39.0663 36.7791 39.0663 34.4473C39.0663 32.407 40.7294 31.0353 43.164 31.0353C45.8388 31.0353 47.4847 32.527 47.6219 34.6874H46.0788C45.9073 33.2986 44.7929 32.3898 43.164 32.3898C41.6038 32.3898 40.5579 33.0757 40.5579 34.3616C40.5579 35.8018 42.0153 36.0933 43.8156 36.4019C45.7702 36.7277 47.7762 37.3792 47.7762 39.711C47.7762 41.7856 46.0274 43.243 43.507 43.243C40.5751 43.243 38.8605 41.5799 38.7748 39.2138Z" fill="#250557"/>
<path d="M52.0054 51.7787C52.0054 48.2278 54.884 45.3491 58.435 45.3491V45.3491C61.9859 45.3491 64.8646 48.2278 64.8646 51.7787V51.7787C64.8646 55.3297 61.9859 58.2083 58.435 58.2083V58.2083C54.884 58.2083 52.0054 55.3297 52.0054 51.7787V51.7787Z" fill="#590DCF"/>
<g clip-path="url(#clip1_468_12361)">
<g clip-path="url(#clip2_468_12361)">
<path d="M55.2202 51.4213L58.0778 53.9217L62.007 49.6353" stroke="white" stroke-width="0.5358" stroke-linecap="round" stroke-linejoin="round"/>
</g>
</g>
</g>
<path d="M79.8734 28.4962C79.8734 23.9954 83.5704 20.7092 88.1426 20.7092C92.6076 20.7092 95.6974 23.4061 95.6974 27.2102C95.6974 30.0678 93.9828 31.9967 91.661 31.9967C90.5537 31.9967 89.8571 31.3716 89.7321 30.6215L89.6964 30.3715C89.2499 31.3538 88.1962 31.9789 86.9638 31.9789C85.285 31.9789 83.8383 30.6572 83.8383 28.5676C83.8383 26.2637 85.4814 24.4598 87.4996 24.4598C88.8213 24.4598 89.6071 25.0313 89.8214 25.71L90.125 24.6027H91.6431L91.1073 29.6392C91.018 30.4429 91.3574 30.7465 92.0003 30.7465C93.0898 30.7465 94.09 29.2284 94.09 27.1567C94.09 24.0847 91.7503 22.0487 88.1069 22.0487C84.2134 22.0487 81.4629 24.8527 81.4629 28.4604C81.4629 32.1396 83.8026 34.2828 87.9461 34.2828C89.4642 34.2828 90.8394 33.9256 91.9646 33.2648L91.911 34.7293C91.018 35.283 89.4999 35.658 87.7854 35.658C83.1775 35.658 79.8734 32.8897 79.8734 28.4962ZM89.6428 27.746C89.6428 26.5137 88.9106 25.835 87.8925 25.835C86.6066 25.835 85.6243 27.0316 85.6243 28.4604C85.6243 29.7642 86.3923 30.5679 87.4282 30.5679C88.6427 30.5679 89.6428 29.4785 89.6428 27.746ZM97.0984 29.8357H98.9915C99.063 30.7822 99.8845 31.4609 101.278 31.4609C102.474 31.4609 103.26 30.9966 103.26 30.2643C103.26 29.282 102.421 29.2106 101.01 29.032C98.9201 28.7819 97.277 28.3354 97.277 26.4423C97.277 24.7098 98.8308 23.5847 101.028 23.6025C103.278 23.6025 104.867 24.6384 104.993 26.5137H103.099C102.992 25.6743 102.206 25.0849 101.063 25.0849C99.9203 25.0849 99.1701 25.5493 99.1701 26.2815C99.1701 27.1388 100.045 27.246 101.367 27.3888C103.457 27.6389 105.153 28.0675 105.153 30.1036C105.153 31.8538 103.492 32.9612 101.278 32.9612C98.8308 32.9612 97.152 31.8181 97.0984 29.8357ZM115.007 31.1752H115.399V32.854H114.381C113.131 32.854 112.703 32.3003 112.703 31.3895C112.095 32.3182 111.167 32.9612 109.684 32.9612C107.684 32.9612 106.291 31.9789 106.291 30.2822C106.291 28.4069 107.648 27.3531 110.202 27.3531H112.506V26.7995C112.506 25.7814 111.774 25.1563 110.506 25.1563C109.363 25.1563 108.595 25.6921 108.452 26.4958H106.559C106.755 24.7098 108.291 23.6025 110.595 23.6025C113.024 23.6025 114.417 24.7634 114.417 26.9245V30.5858C114.417 31.0501 114.614 31.1752 115.007 31.1752ZM112.506 29.1034V28.7819H110.113C108.916 28.7819 108.255 29.2284 108.255 30.1571C108.255 30.9251 108.898 31.4609 109.952 31.4609C111.56 31.4609 112.488 30.5143 112.506 29.1034ZM116.45 32.854V20.352H118.379V28.139L122.523 23.7097H124.791L121.344 27.4067L125.005 32.854H122.719L120.022 28.8176L118.379 30.5322V32.854H116.45ZM125.196 29.8357H127.09C127.161 30.7822 127.983 31.4609 129.376 31.4609C130.572 31.4609 131.358 30.9966 131.358 30.2643C131.358 29.282 130.519 29.2106 129.108 29.032C127.018 28.7819 125.375 28.3354 125.375 26.4423C125.375 24.7098 126.929 23.5847 129.126 23.6025C131.376 23.6025 132.966 24.6384 133.091 26.5137H131.197C131.09 25.6743 130.304 25.0849 129.161 25.0849C128.018 25.0849 127.268 25.5493 127.268 26.2815C127.268 27.1388 128.143 27.246 129.465 27.3888C131.555 27.6389 133.251 28.0675 133.251 30.1036C133.251 31.8538 131.59 32.9612 129.376 32.9612C126.929 32.9612 125.25 31.8181 125.196 29.8357ZM139.443 24.4241C141.926 24.4241 143.623 26.1386 143.623 28.6569C143.623 31.4609 141.533 32.9433 139.086 32.9433C136.246 32.9433 134.568 31.1394 134.443 28.9069H136.407C136.55 30.2107 137.497 31.2823 139.104 31.2823C140.39 31.2823 141.622 30.3893 141.622 28.6569C141.622 27.1388 140.64 26.0493 139.104 26.0493C138.354 26.0493 137.086 26.2994 136.586 27.5853L134.675 27.5496L135.068 20.352H142.872V22.0844H136.871L136.657 25.4778C137.354 24.7277 138.3 24.4241 139.443 24.4241ZM145.732 30.3715V25.4064H144.143V23.7097H145.732V21.1557H147.679V23.7097H149.912V25.4064H147.679V30.175C147.679 30.8894 147.929 31.1573 148.661 31.1573H150.019V32.854H148.233C146.482 32.854 145.732 32.0324 145.732 30.3715ZM156.05 23.6025C158.086 23.6025 159.747 24.7098 159.747 27.7639V32.854H157.818V27.9246C157.818 26.1922 157.05 25.2635 155.621 25.2635C154.103 25.2635 153.175 26.3887 153.175 28.2283V32.854H151.246V20.352H153.175V25.0313C153.746 24.2455 154.621 23.6025 156.05 23.6025ZM169.86 31.1752H170.253V32.854H169.235C167.984 32.854 167.556 32.3003 167.556 31.3895C166.949 32.3182 166.02 32.9612 164.537 32.9612C162.537 32.9612 161.144 31.9789 161.144 30.2822C161.144 28.4069 162.501 27.3531 165.055 27.3531H167.359V26.7995C167.359 25.7814 166.627 25.1563 165.359 25.1563C164.216 25.1563 163.448 25.6921 163.305 26.4958H161.412C161.608 24.7098 163.144 23.6025 165.448 23.6025C167.877 23.6025 169.27 24.7634 169.27 26.9245V30.5858C169.27 31.0501 169.467 31.1752 169.86 31.1752ZM167.359 29.1034V28.7819H164.966C163.769 28.7819 163.109 29.2284 163.109 30.1571C163.109 30.9251 163.752 31.4609 164.805 31.4609C166.413 31.4609 167.341 30.5143 167.359 29.1034ZM173.384 32.854L170.009 23.7097H172.081L174.599 30.7822L177.081 23.7097H179.117L175.742 32.854H173.384ZM184.015 32.9612C181.14 32.9612 179.336 31.1037 179.336 28.2997C179.336 25.4778 181.14 23.6025 183.837 23.6025C186.48 23.6025 188.248 25.2814 188.302 27.9604C188.302 28.1925 188.284 28.4426 188.248 28.6926H181.354V28.8176C181.408 30.3715 182.39 31.3895 183.908 31.3895C185.087 31.3895 185.944 30.8001 186.212 29.7821H188.141C187.819 31.5859 186.283 32.9612 184.015 32.9612ZM181.425 27.2817H186.301C186.141 25.9243 185.194 25.1563 183.854 25.1563C182.622 25.1563 181.568 25.9779 181.425 27.2817Z" fill="black"/>
<path d="M84.717 49.2249C85.6315 49.3964 86.5888 50.1251 86.5888 51.6539C86.5888 53.3542 85.16 54.5115 82.9882 54.5115C80.8164 54.5115 79.4162 53.3256 79.4162 51.3396H80.6021C80.6164 52.6541 81.6451 53.4399 83.0596 53.4399C84.3598 53.4399 85.36 52.7112 85.36 51.5682C85.36 50.5252 84.5027 49.8536 82.9453 49.8536H82.088V48.8106H82.8739C84.3598 48.8106 85.1028 48.0676 85.1028 47.0532C85.1028 46.0387 84.1884 45.4101 82.9882 45.4101C81.7308 45.4101 80.8164 46.1673 80.8021 47.3104H79.6162C79.6305 45.5529 81.0021 44.3385 82.9739 44.3385C85.0314 44.3385 86.3316 45.4101 86.3316 46.9817C86.3316 48.2391 85.6743 48.9678 84.717 49.2249ZM87.7791 49.6536V49.1964C87.7791 46.3531 89.3222 44.3385 91.5797 44.3385C93.8229 44.3385 95.3661 46.3531 95.3661 49.1964V49.6536C95.3661 52.6398 93.8229 54.5115 91.5797 54.5115C89.3222 54.5115 87.7791 52.6398 87.7791 49.6536ZM94.1516 49.6107V49.2392C94.1516 46.8674 93.1228 45.4386 91.5797 45.4386C90.0223 45.4386 88.9936 46.8674 88.9936 49.2392V49.6107C88.9936 51.9825 90.0223 53.4113 91.5797 53.4113C93.1228 53.4113 94.1516 51.9825 94.1516 49.6107ZM96.7547 46.7674C96.7547 45.3529 97.8263 44.3385 99.2694 44.3385C100.712 44.3385 101.784 45.3529 101.784 46.7674C101.784 48.1533 100.712 49.1678 99.2694 49.1678C97.8263 49.1678 96.7547 48.1533 96.7547 46.7674ZM99.598 54.4258H98.4406L105.256 44.4242H106.413L99.598 54.4258ZM100.727 46.7674C100.727 45.9101 100.112 45.2815 99.2694 45.2815C98.4264 45.2815 97.812 45.9101 97.812 46.7674C97.812 47.6104 98.4264 48.2248 99.2694 48.2248C100.112 48.2248 100.727 47.6104 100.727 46.7674ZM103.041 52.1111C103.041 50.6966 104.113 49.6822 105.556 49.6822C106.999 49.6822 108.071 50.6966 108.071 52.1111C108.071 53.4971 106.999 54.5115 105.556 54.5115C104.113 54.5115 103.041 53.4971 103.041 52.1111ZM107.013 52.1111C107.013 51.2538 106.399 50.6252 105.556 50.6252C104.713 50.6252 104.099 51.2538 104.099 52.1111C104.099 52.9541 104.713 53.5685 105.556 53.5685C106.399 53.5685 107.013 52.9541 107.013 52.1111ZM116.745 54.5115C114.616 54.5115 113.13 52.997 113.13 50.7823C113.13 48.5677 114.616 47.0532 116.745 47.0532C118.874 47.0532 120.36 48.5677 120.36 50.7823C120.36 52.997 118.874 54.5115 116.745 54.5115ZM116.745 53.4685C118.188 53.4685 119.16 52.3397 119.16 50.7823C119.16 49.2249 118.188 48.0962 116.745 48.0962C115.302 48.0962 114.33 49.2249 114.33 50.7823C114.33 52.3397 115.302 53.4685 116.745 53.4685ZM125.075 47.1389H125.404V48.2819H124.818C123.289 48.2819 122.875 49.5536 122.875 50.7109V54.4258H121.704V47.1389H122.718L122.875 48.2391C123.218 47.6818 123.775 47.1389 125.075 47.1389ZM127.02 45.9101C126.591 45.9101 126.263 45.5958 126.263 45.1529C126.263 44.7099 126.591 44.3956 127.02 44.3956C127.448 44.3956 127.777 44.7099 127.777 45.1529C127.777 45.5958 127.448 45.9101 127.02 45.9101ZM126.42 54.4258V47.1389H127.591V54.4258H126.42ZM134.94 48.3962L135.097 47.1389H136.112V54.0686C136.112 56.1689 134.997 57.3691 132.497 57.3691C130.639 57.3691 129.339 56.4975 129.153 54.8973H130.354C130.554 55.8117 131.368 56.3261 132.583 56.3261C134.111 56.3261 134.94 55.6117 134.94 54.0257V53.1684C134.454 53.9971 133.668 54.5115 132.44 54.5115C130.425 54.5115 128.939 53.1541 128.939 50.7823C128.939 48.5534 130.425 47.0532 132.44 47.0532C133.668 47.0532 134.483 47.5818 134.94 48.3962ZM132.554 53.4685C133.983 53.4685 134.954 52.3683 134.954 50.8109C134.954 49.2107 133.983 48.0962 132.554 48.0962C131.111 48.0962 130.139 49.1964 130.139 50.7823C130.139 52.3683 131.111 53.4685 132.554 53.4685ZM138.308 45.9101C137.879 45.9101 137.551 45.5958 137.551 45.1529C137.551 44.7099 137.879 44.3956 138.308 44.3956C138.736 44.3956 139.065 44.7099 139.065 45.1529C139.065 45.5958 138.736 45.9101 138.308 45.9101ZM137.708 54.4258V47.1389H138.879V54.4258H137.708ZM144.056 47.0532C145.7 47.0532 147 47.9533 147 50.368V54.4258H145.828V50.4394C145.828 48.9249 145.128 48.1248 143.856 48.1248C142.485 48.1248 141.656 49.1392 141.656 50.7823V54.4258H140.484V47.1389H141.499L141.656 48.1248C142.085 47.5675 142.828 47.0532 144.056 47.0532ZM154.937 53.3542H155.309V54.4258H154.666C153.694 54.4258 153.366 54.0114 153.351 53.297C152.894 53.9543 152.166 54.5115 150.908 54.5115C149.308 54.5115 148.222 53.7114 148.222 52.3826C148.222 50.9252 149.237 50.1108 151.151 50.1108H153.294V49.6107C153.294 48.6677 152.623 48.0962 151.48 48.0962C150.451 48.0962 149.765 48.582 149.622 49.325H148.451C148.622 47.8962 149.779 47.0532 151.537 47.0532C153.394 47.0532 154.466 47.9819 154.466 49.6822V52.8684C154.466 53.2542 154.609 53.3542 154.937 53.3542ZM153.294 51.4539V51.0967H151.037C149.994 51.0967 149.408 51.4825 149.408 52.3112C149.408 53.0256 150.022 53.5113 150.994 53.5113C152.451 53.5113 153.294 52.6684 153.294 51.4539ZM156.21 54.4258V44.4242H157.381V54.4258H156.21ZM170.856 47.0532C172.37 47.0532 173.613 47.9247 173.613 50.2251V54.4258H172.442V50.2965C172.442 48.8677 171.813 48.1248 170.713 48.1248C169.498 48.1248 168.755 49.0392 168.755 50.5252V54.4258H167.584V50.2965C167.584 48.8677 166.941 48.1248 165.826 48.1248C164.626 48.1248 163.897 49.1249 163.897 50.5823V54.4258H162.726V47.1389H163.74L163.897 48.1391C164.283 47.6104 164.897 47.0532 166.026 47.0532C167.041 47.0532 167.912 47.5104 168.327 48.4391C168.77 47.6533 169.555 47.0532 170.856 47.0532ZM181.56 53.3542H181.931V54.4258H181.289C180.317 54.4258 179.988 54.0114 179.974 53.297C179.517 53.9543 178.788 54.5115 177.531 54.5115C175.931 54.5115 174.845 53.7114 174.845 52.3826C174.845 50.9252 175.859 50.1108 177.774 50.1108H179.917V49.6107C179.917 48.6677 179.245 48.0962 178.102 48.0962C177.074 48.0962 176.388 48.582 176.245 49.325H175.073C175.245 47.8962 176.402 47.0532 178.159 47.0532C180.017 47.0532 181.088 47.9819 181.088 49.6822V52.8684C181.088 53.2542 181.231 53.3542 181.56 53.3542ZM179.917 51.4539V51.0967H177.659C176.616 51.0967 176.031 51.4825 176.031 52.3112C176.031 53.0256 176.645 53.5113 177.616 53.5113C179.074 53.5113 179.917 52.6684 179.917 51.4539ZM183.375 52.5255V48.2105H182.061V47.1389H183.375V45.0957H184.547V47.1389H186.433V48.2105H184.547V52.5112C184.547 53.1256 184.761 53.3542 185.39 53.3542H186.547V54.4258H185.275C183.875 54.4258 183.375 53.8114 183.375 52.5255ZM190.653 54.5115C188.524 54.5115 187.124 53.0684 187.124 50.7966C187.124 48.5677 188.567 47.0532 190.681 47.0532C192.467 47.0532 193.596 48.0533 193.896 49.6536H192.667C192.453 48.682 191.739 48.0962 190.667 48.0962C189.267 48.0962 188.324 49.2107 188.324 50.7966C188.324 52.3826 189.267 53.4685 190.667 53.4685C191.71 53.4685 192.425 52.8684 192.653 51.9397H193.896C193.61 53.5113 192.425 54.5115 190.653 54.5115ZM198.753 47.0532C200.382 47.0532 201.71 47.9533 201.71 50.368V54.4258H200.539V50.4394C200.539 48.9249 199.81 48.1248 198.553 48.1248C197.195 48.1248 196.352 49.1392 196.352 50.7823V54.4258H195.181V44.4242H196.352V48.3391C196.781 47.6533 197.524 47.0532 198.753 47.0532Z" fill="#FF3200"/>
<path d="M281.032 41.1401V40.3286L284.141 37.631C284.884 36.9909 285.501 36.3737 285.501 35.5049C285.501 34.4991 284.815 33.9276 283.752 33.9276C282.723 33.9276 282.038 34.6134 282.038 35.7107V35.8593H281.077V35.6535C281.077 34.1447 282.14 33.0703 283.752 33.0703C285.478 33.0703 286.484 34.019 286.484 35.4592C286.484 36.6594 285.707 37.4138 284.758 38.2254L282.358 40.26H286.541V41.1401H281.032ZM292.132 36.2022V33.1389H293.07V41.1401H292.258L292.132 40.2028C291.744 40.7401 291.115 41.2087 290.132 41.2087C288.52 41.2087 287.332 40.1228 287.332 38.2254C287.332 36.4422 288.52 35.242 290.132 35.242C291.115 35.242 291.778 35.6421 292.132 36.2022ZM290.224 40.3743C291.367 40.3743 292.144 39.4942 292.144 38.2482C292.144 36.968 291.367 36.0765 290.224 36.0765C289.069 36.0765 288.292 36.9566 288.292 38.2254C288.292 39.4942 289.069 40.3743 290.224 40.3743ZM299.502 40.2829H299.799V41.1401H299.284C298.507 41.1401 298.244 40.8087 298.233 40.2371C297.867 40.7629 297.284 41.2087 296.278 41.2087C294.998 41.2087 294.129 40.5686 294.129 39.5056C294.129 38.3397 294.941 37.6882 296.473 37.6882H298.187V37.2881C298.187 36.5337 297.65 36.0765 296.736 36.0765C295.913 36.0765 295.364 36.4651 295.25 37.0595H294.312C294.449 35.9164 295.375 35.242 296.781 35.242C298.267 35.242 299.124 35.985 299.124 37.3452V39.8942C299.124 40.2028 299.239 40.2829 299.502 40.2829ZM298.187 38.7626V38.4769H296.381C295.547 38.4769 295.078 38.7855 295.078 39.4484C295.078 40.02 295.57 40.4086 296.347 40.4086C297.513 40.4086 298.187 39.7342 298.187 38.7626ZM301.999 41.1744L299.724 35.3106H300.719L302.513 39.9628L304.251 35.3106H305.245L302.559 42.1232C302.193 43.0604 301.976 43.4262 301.153 43.4262H300.033V42.5689H300.867C301.405 42.5689 301.496 42.4318 301.713 41.8831L301.999 41.1744ZM305.604 39.2198H306.564C306.598 39.9057 307.204 40.4086 308.176 40.4086C308.999 40.4086 309.582 40.0542 309.582 39.517C309.582 38.7855 308.942 38.7283 308.073 38.6254C306.77 38.4654 305.73 38.2025 305.73 36.9909C305.73 35.9279 306.701 35.2306 308.016 35.242C309.342 35.2535 310.302 35.8707 310.393 37.0823H309.433C309.364 36.488 308.816 36.0422 308.016 36.0422C307.204 36.0422 306.655 36.3851 306.655 36.9223C306.655 37.5624 307.273 37.6424 308.119 37.7453C309.445 37.9053 310.508 38.1568 310.508 39.4484C310.508 40.5343 309.467 41.2087 308.176 41.2087C306.667 41.2087 305.627 40.5 305.604 39.2198ZM318.46 36.9795C319.192 37.1166 319.958 37.6996 319.958 38.9226C319.958 40.2829 318.814 41.2087 317.077 41.2087C315.34 41.2087 314.219 40.26 314.219 38.6712H315.168C315.18 39.7228 316.003 40.3514 317.134 40.3514C318.174 40.3514 318.975 39.7685 318.975 38.8541C318.975 38.0196 318.289 37.4824 317.043 37.4824H316.357V36.648H316.986C318.174 36.648 318.769 36.0536 318.769 35.242C318.769 34.4305 318.037 33.9276 317.077 33.9276C316.071 33.9276 315.34 34.5334 315.328 35.4478H314.379C314.391 34.0419 315.488 33.0703 317.066 33.0703C318.712 33.0703 319.752 33.9276 319.752 35.1849C319.752 36.1908 319.226 36.7737 318.46 36.9795ZM323.916 35.242C325.219 35.242 326.282 35.9622 326.282 37.8939V41.1401H325.345V37.9511C325.345 36.7394 324.762 36.0993 323.756 36.0993C322.67 36.0993 321.996 36.9109 321.996 38.2254V41.1401H321.058V33.1389H321.996V36.2708C322.339 35.7221 322.933 35.242 323.916 35.242ZM330.174 35.3106H330.437V36.2251H329.969C328.746 36.2251 328.414 37.2424 328.414 38.1682V41.1401H327.477V35.3106H328.288L328.414 36.1908C328.688 35.745 329.134 35.3106 330.174 35.3106ZM330.887 39.2198H331.847C331.881 39.9057 332.487 40.4086 333.459 40.4086C334.282 40.4086 334.865 40.0542 334.865 39.517C334.865 38.7855 334.225 38.7283 333.356 38.6254C332.053 38.4654 331.013 38.2025 331.013 36.9909C331.013 35.9279 331.984 35.2306 333.299 35.242C334.625 35.2535 335.585 35.8707 335.676 37.0823H334.716C334.648 36.488 334.099 36.0422 333.299 36.0422C332.487 36.0422 331.939 36.3851 331.939 36.9223C331.939 37.5624 332.556 37.6424 333.402 37.7453C334.728 37.9053 335.791 38.1568 335.791 39.4484C335.791 40.5343 334.75 41.2087 333.459 41.2087C331.95 41.2087 330.91 40.5 330.887 39.2198ZM342.52 35.3106H342.783V36.2251H342.314C341.091 36.2251 340.76 37.2424 340.76 38.1682V41.1401H339.823V35.3106H340.634L340.76 36.1908C341.034 35.745 341.48 35.3106 342.52 35.3106ZM345.947 41.2087C344.198 41.2087 343.055 40.0085 343.055 38.2254C343.055 36.4537 344.175 35.242 345.821 35.242C347.467 35.242 348.541 36.2822 348.587 38.0082C348.587 38.1339 348.576 38.2711 348.564 38.4083H344.038V38.4883C344.072 39.597 344.769 40.3743 345.878 40.3743C346.701 40.3743 347.341 39.9399 347.536 39.1855H348.484C348.256 40.3514 347.296 41.2087 345.947 41.2087ZM344.095 37.631H347.581C347.49 36.6251 346.804 36.065 345.832 36.065C344.975 36.065 344.186 36.6823 344.095 37.631ZM356.161 35.242C357.372 35.242 358.367 35.9393 358.367 37.7796V41.1401H357.429V37.8368C357.429 36.6937 356.926 36.0993 356.046 36.0993C355.075 36.0993 354.48 36.8309 354.48 38.0196V41.1401H353.543V37.8368C353.543 36.6937 353.029 36.0993 352.137 36.0993C351.177 36.0993 350.594 36.8995 350.594 38.0654V41.1401H349.657V35.3106H350.468L350.594 36.1108C350.903 35.6878 351.394 35.242 352.297 35.242C353.109 35.242 353.806 35.6078 354.137 36.3508C354.492 35.7221 355.12 35.242 356.161 35.242ZM364.724 40.2829H365.021V41.1401H364.507C363.73 41.1401 363.467 40.8087 363.455 40.2371C363.09 40.7629 362.507 41.2087 361.501 41.2087C360.221 41.2087 359.352 40.5686 359.352 39.5056C359.352 38.3397 360.163 37.6882 361.695 37.6882H363.41V37.2881C363.41 36.5337 362.872 36.0765 361.958 36.0765C361.135 36.0765 360.586 36.4651 360.472 37.0595H359.535C359.672 35.9164 360.598 35.242 362.004 35.242C363.49 35.242 364.347 35.985 364.347 37.3452V39.8942C364.347 40.2028 364.461 40.2829 364.724 40.2829ZM363.41 38.7626V38.4769H361.604C360.769 38.4769 360.301 38.7855 360.301 39.4484C360.301 40.02 360.792 40.4086 361.569 40.4086C362.735 40.4086 363.41 39.7342 363.41 38.7626ZM366.222 34.3276C365.879 34.3276 365.616 34.0761 365.616 33.7218C365.616 33.3675 365.879 33.116 366.222 33.116C366.565 33.116 366.828 33.3675 366.828 33.7218C366.828 34.0761 366.565 34.3276 366.222 34.3276ZM365.742 41.1401V35.3106H366.679V41.1401H365.742ZM370.821 35.242C372.135 35.242 373.176 35.9622 373.176 37.8939V41.1401H372.238V37.9511C372.238 36.7394 371.678 36.0993 370.661 36.0993C369.564 36.0993 368.901 36.9109 368.901 38.2254V41.1401H367.963V35.3106H368.775L368.901 36.0993C369.243 35.6535 369.838 35.242 370.821 35.242ZM374.851 34.3276C374.508 34.3276 374.245 34.0761 374.245 33.7218C374.245 33.3675 374.508 33.116 374.851 33.116C375.194 33.116 375.456 33.3675 375.456 33.7218C375.456 34.0761 375.194 34.3276 374.851 34.3276ZM374.371 41.1401V35.3106H375.308V41.1401H374.371ZM379.449 35.242C380.764 35.242 381.804 35.9622 381.804 37.8939V41.1401H380.867V37.9511C380.867 36.7394 380.307 36.0993 379.289 36.0993C378.192 36.0993 377.529 36.9109 377.529 38.2254V41.1401H376.592V35.3106H377.403L377.529 36.0993C377.872 35.6535 378.466 35.242 379.449 35.242ZM387.594 36.3165L387.72 35.3106H388.531V40.8544C388.531 42.5346 387.64 43.4948 385.64 43.4948C384.154 43.4948 383.113 42.7975 382.965 41.5173H383.925C384.085 42.2489 384.737 42.6604 385.708 42.6604C386.931 42.6604 387.594 42.0889 387.594 40.8201V40.1343C387.206 40.7972 386.577 41.2087 385.594 41.2087C383.982 41.2087 382.793 40.1228 382.793 38.2254C382.793 36.4422 383.982 35.242 385.594 35.242C386.577 35.242 387.228 35.665 387.594 36.3165ZM385.685 40.3743C386.828 40.3743 387.606 39.4942 387.606 38.2482C387.606 36.968 386.828 36.0765 385.685 36.0765C384.531 36.0765 383.754 36.9566 383.754 38.2254C383.754 39.4942 384.531 40.3743 385.685 40.3743Z" fill="#A8A8A8"/>
<defs>
<clipPath id="clip0_468_12361">
<rect width="42.864" height="42.864" fill="white" transform="translate(21.8643 15.208)"/>
</clipPath>
<clipPath id="clip1_468_12361">
<rect width="8.5728" height="8.5728" fill="white" transform="translate(54.1484 47.4922)"/>
</clipPath>
<clipPath id="clip2_468_12361">
<rect width="8.5728" height="8.5728" fill="white" transform="translate(54.1484 47.4922)"/>
</clipPath>
</defs>
</svg>
