<svg width="412" height="72" viewBox="0 0 412 72" fill="none" xmlns="http://www.w3.org/2000/svg">
<rect x="0.432129" y="0.303955" width="410.78" height="71.44" rx="17.86" fill="#F5F5F5"/>
<g clip-path="url(#clip0_468_12337)">
<path d="M21.8643 36.0238C21.8643 24.1872 31.4597 14.5918 43.2963 14.5918V14.5918C55.1328 14.5918 64.7283 24.1872 64.7283 36.0238V36.0238C64.7283 47.8604 55.1328 57.4558 43.2963 57.4558V57.4558C31.4597 57.4558 21.8643 47.8604 21.8643 36.0238V36.0238Z" fill="#EEE7FA"/>
<path d="M38.6579 31.8934V30.5218H47.9337V31.8934H44.0416V42.5237H42.55V31.8934H38.6579Z" fill="#250557"/>
<path d="M52.0054 51.162C52.0054 47.6111 54.884 44.7324 58.435 44.7324V44.7324C61.9859 44.7324 64.8646 47.6111 64.8646 51.162V51.162C64.8646 54.713 61.9859 57.5916 58.435 57.5916V57.5916C54.884 57.5916 52.0054 54.713 52.0054 51.162V51.162Z" fill="#590DCF"/>
<g clip-path="url(#clip1_468_12337)">
<g clip-path="url(#clip2_468_12337)">
<path d="M55.2202 50.805L58.0778 53.3054L62.007 49.019" stroke="white" stroke-width="0.5358" stroke-linecap="round" stroke-linejoin="round"/>
</g>
</g>
</g>
<path d="M79.8734 27.88C79.8734 23.3792 83.5704 20.093 88.1426 20.093C92.6076 20.093 95.6974 22.7899 95.6974 26.594C95.6974 29.4516 93.9828 31.3805 91.661 31.3805C90.5537 31.3805 89.8571 30.7554 89.7321 30.0053L89.6964 29.7553C89.2499 30.7376 88.1962 31.3627 86.9638 31.3627C85.285 31.3627 83.8383 30.041 83.8383 27.9514C83.8383 25.6475 85.4814 23.8436 87.4996 23.8436C88.8213 23.8436 89.6071 24.4151 89.8214 25.0938L90.125 23.9865H91.6431L91.1073 29.023C91.018 29.8267 91.3574 30.1303 92.0003 30.1303C93.0898 30.1303 94.09 28.6122 94.09 26.5405C94.09 23.4685 91.7503 21.4325 88.1069 21.4325C84.2134 21.4325 81.4629 24.2365 81.4629 27.8442C81.4629 31.5234 83.8026 33.6666 87.9461 33.6666C89.4642 33.6666 90.8394 33.3094 91.9646 32.6486L91.911 34.1131C91.018 34.6668 89.4999 35.0418 87.7854 35.0418C83.1775 35.0418 79.8734 32.2735 79.8734 27.88ZM89.6428 27.1298C89.6428 25.8975 88.9106 25.2188 87.8925 25.2188C86.6066 25.2188 85.6243 26.4154 85.6243 27.8442C85.6243 29.148 86.3923 29.9517 87.4282 29.9517C88.6427 29.9517 89.6428 28.8623 89.6428 27.1298ZM98.1521 29.7553V24.7902H96.5626V23.0935H98.1521V20.5395H100.099V23.0935H102.331V24.7902H100.099V29.5588C100.099 30.2732 100.349 30.5411 101.081 30.5411H102.439V32.2378H100.653C98.9022 32.2378 98.1521 31.4162 98.1521 29.7553ZM104.648 21.8076C103.987 21.8076 103.469 21.3253 103.469 20.6467C103.469 19.968 103.987 19.4858 104.648 19.4858C105.309 19.4858 105.827 19.968 105.827 20.6467C105.827 21.3253 105.309 21.8076 104.648 21.8076ZM103.666 32.2378V23.0935H105.594V32.2378H103.666ZM117.844 21.4325H116.272C115.647 21.4325 115.379 21.7004 115.379 22.3255V23.0935H117.844V24.7902H115.379V32.2378H113.45V24.7902H110.093V32.2378H108.146V24.7902H106.557V23.0935H108.146V22.1826C108.146 20.5752 108.932 19.7358 110.7 19.7358H112.325V21.4325H110.968C110.343 21.4325 110.093 21.7004 110.093 22.3255V23.0935H113.45V22.1826C113.45 20.5752 114.236 19.7358 116.004 19.7358H117.844V21.4325ZM126.971 30.559H127.364V32.2378H126.346C125.096 32.2378 124.667 31.6841 124.667 30.7733C124.06 31.702 123.131 32.345 121.649 32.345C119.649 32.345 118.256 31.3627 118.256 29.666C118.256 27.7907 119.613 26.7369 122.167 26.7369H124.471V26.1833C124.471 25.1652 123.739 24.5401 122.471 24.5401C121.328 24.5401 120.56 25.0759 120.417 25.8796H118.524C118.72 24.0936 120.256 22.9863 122.56 22.9863C124.989 22.9863 126.382 24.1472 126.382 26.3083V29.9696C126.382 30.4339 126.578 30.559 126.971 30.559ZM124.471 28.4872V28.1657H122.078C120.881 28.1657 120.22 28.6122 120.22 29.5409C120.22 30.3089 120.863 30.8447 121.917 30.8447C123.524 30.8447 124.453 29.8981 124.471 28.4872ZM133.237 22.9863C135.255 22.9863 136.916 24.0936 136.916 27.1477V32.2378H134.97V27.3084C134.97 25.576 134.237 24.6473 132.791 24.6473C131.255 24.6473 130.344 25.7725 130.344 27.6299V32.2378H128.415V23.0935H130.094L130.308 24.2901C130.88 23.5757 131.755 22.9863 133.237 22.9863ZM140.93 32.2914L137.376 23.0935H139.43L141.984 30.041L144.466 23.0935H146.52L142.377 33.6666C141.805 35.149 141.412 35.8098 140.073 35.8098H138.001V34.1131H139.358C140.108 34.1131 140.287 33.9345 140.573 33.1844L140.93 32.2914Z" fill="black"/>
<path d="M83.0596 53.8955C81.245 53.8955 80.002 52.8097 79.7591 51.138H80.9593C81.1879 52.1524 81.9023 52.8382 83.1168 52.8382C84.8599 52.8382 85.8172 51.2523 85.8172 48.9948C85.8172 48.8519 85.8172 48.7519 85.8029 48.509C85.7886 48.5661 85.7743 48.6518 85.7172 48.7804C85.2743 49.7663 84.2741 50.4236 82.931 50.4236C80.9593 50.4236 79.5733 49.1234 79.5733 47.0802C79.5733 45.1513 80.9879 43.7225 83.0453 43.7225C84.4313 43.7225 85.4457 44.3512 86.0744 45.3799C86.5745 46.2515 86.8602 47.4517 86.8602 48.7662C86.8602 51.9095 85.4457 53.8955 83.0596 53.8955ZM83.0168 49.3662C84.4027 49.3662 85.3457 48.4232 85.3457 47.0516C85.3457 45.7085 84.4313 44.7798 83.0596 44.7798C81.6737 44.7798 80.7735 45.7371 80.7735 47.0802C80.7735 48.409 81.6308 49.3662 83.0168 49.3662ZM88.0861 49.0376V48.5804C88.0861 45.7371 89.6292 43.7225 91.8867 43.7225C94.1299 43.7225 95.673 45.7371 95.673 48.5804V49.0376C95.673 52.0238 94.1299 53.8955 91.8867 53.8955C89.6292 53.8955 88.0861 52.0238 88.0861 49.0376ZM94.4585 48.9948V48.6233C94.4585 46.2515 93.4298 44.8227 91.8867 44.8227C90.3293 44.8227 89.3006 46.2515 89.3006 48.6233V48.9948C89.3006 51.3666 90.3293 52.7954 91.8867 52.7954C93.4298 52.7954 94.4585 51.3666 94.4585 48.9948ZM97.0616 46.1514C97.0616 44.7369 98.1332 43.7225 99.5763 43.7225C101.019 43.7225 102.091 44.7369 102.091 46.1514C102.091 47.5374 101.019 48.5518 99.5763 48.5518C98.1332 48.5518 97.0616 47.5374 97.0616 46.1514ZM99.9049 53.8098H98.7476L105.563 43.8082H106.72L99.9049 53.8098ZM101.034 46.1514C101.034 45.2942 100.419 44.6655 99.5763 44.6655C98.7333 44.6655 98.1189 45.2942 98.1189 46.1514C98.1189 46.9944 98.7333 47.6088 99.5763 47.6088C100.419 47.6088 101.034 46.9944 101.034 46.1514ZM103.348 51.4952C103.348 50.0806 104.42 49.0662 105.863 49.0662C107.306 49.0662 108.378 50.0806 108.378 51.4952C108.378 52.8811 107.306 53.8955 105.863 53.8955C104.42 53.8955 103.348 52.8811 103.348 51.4952ZM107.32 51.4952C107.32 50.6379 106.706 50.0092 105.863 50.0092C105.02 50.0092 104.406 50.6379 104.406 51.4952C104.406 52.3382 105.02 52.9525 105.863 52.9525C106.706 52.9525 107.32 52.3382 107.32 51.4952ZM117.052 53.8955C114.923 53.8955 113.437 52.381 113.437 50.1664C113.437 47.9517 114.923 46.4372 117.052 46.4372C119.181 46.4372 120.667 47.9517 120.667 50.1664C120.667 52.381 119.181 53.8955 117.052 53.8955ZM117.052 52.8525C118.495 52.8525 119.467 51.7238 119.467 50.1664C119.467 48.609 118.495 47.4802 117.052 47.4802C115.609 47.4802 114.637 48.609 114.637 50.1664C114.637 51.7238 115.609 52.8525 117.052 52.8525ZM125.382 46.5229H125.711V47.666H125.125C123.596 47.666 123.182 48.9376 123.182 50.0949V53.8098H122.01V46.5229H123.025L123.182 47.6231C123.525 47.0659 124.082 46.5229 125.382 46.5229ZM127.327 45.2942C126.898 45.2942 126.569 44.9798 126.569 44.5369C126.569 44.094 126.898 43.7796 127.327 43.7796C127.755 43.7796 128.084 44.094 128.084 44.5369C128.084 44.9798 127.755 45.2942 127.327 45.2942ZM126.727 53.8098V46.5229H127.898V53.8098H126.727ZM135.247 47.7803L135.404 46.5229H136.419V53.4526C136.419 55.553 135.304 56.7531 132.804 56.7531C130.946 56.7531 129.646 55.8816 129.46 54.2813H130.661C130.861 55.1958 131.675 55.7101 132.89 55.7101C134.418 55.7101 135.247 54.9957 135.247 53.4098V52.5525C134.761 53.3812 133.975 53.8955 132.747 53.8955C130.732 53.8955 129.246 52.5382 129.246 50.1664C129.246 47.9374 130.732 46.4372 132.747 46.4372C133.975 46.4372 134.79 46.9659 135.247 47.7803ZM132.861 52.8525C134.29 52.8525 135.261 51.7523 135.261 50.195C135.261 48.5947 134.29 47.4802 132.861 47.4802C131.418 47.4802 130.446 48.5804 130.446 50.1664C130.446 51.7523 131.418 52.8525 132.861 52.8525ZM138.615 45.2942C138.186 45.2942 137.858 44.9798 137.858 44.5369C137.858 44.094 138.186 43.7796 138.615 43.7796C139.043 43.7796 139.372 44.094 139.372 44.5369C139.372 44.9798 139.043 45.2942 138.615 45.2942ZM138.015 53.8098V46.5229H139.186V53.8098H138.015ZM144.363 46.4372C146.007 46.4372 147.307 47.3374 147.307 49.752V53.8098H146.135V49.8235C146.135 48.3089 145.435 47.5088 144.163 47.5088C142.792 47.5088 141.963 48.5233 141.963 50.1664V53.8098H140.791V46.5229H141.806L141.963 47.5088C142.392 46.9516 143.135 46.4372 144.363 46.4372ZM155.244 52.7382H155.616V53.8098H154.973C154.001 53.8098 153.673 53.3955 153.658 52.6811C153.201 53.3383 152.473 53.8955 151.215 53.8955C149.615 53.8955 148.529 53.0954 148.529 51.7666C148.529 50.3093 149.543 49.4948 151.458 49.4948H153.601V48.9948C153.601 48.0518 152.93 47.4802 151.787 47.4802C150.758 47.4802 150.072 47.966 149.929 48.709H148.758C148.929 47.2802 150.086 46.4372 151.844 46.4372C153.701 46.4372 154.773 47.3659 154.773 49.0662V52.2524C154.773 52.6382 154.916 52.7382 155.244 52.7382ZM153.601 50.8379V50.4807H151.344C150.301 50.4807 149.715 50.8665 149.715 51.6952C149.715 52.4096 150.329 52.8954 151.301 52.8954C152.758 52.8954 153.601 52.0524 153.601 50.8379ZM156.517 53.8098V43.8082H157.688V53.8098H156.517ZM171.163 46.4372C172.677 46.4372 173.92 47.3088 173.92 49.6091V53.8098H172.749V49.6806C172.749 48.2518 172.12 47.5088 171.02 47.5088C169.805 47.5088 169.062 48.4232 169.062 49.9092V53.8098H167.891V49.6806C167.891 48.2518 167.248 47.5088 166.133 47.5088C164.933 47.5088 164.204 48.509 164.204 49.9663V53.8098H163.033V46.5229H164.047L164.204 47.5231C164.59 46.9944 165.204 46.4372 166.333 46.4372C167.348 46.4372 168.219 46.8944 168.634 47.8231C169.077 47.0373 169.862 46.4372 171.163 46.4372ZM181.867 52.7382H182.238V53.8098H181.595C180.624 53.8098 180.295 53.3955 180.281 52.6811C179.824 53.3383 179.095 53.8955 177.838 53.8955C176.237 53.8955 175.152 53.0954 175.152 51.7666C175.152 50.3093 176.166 49.4948 178.081 49.4948H180.224V48.9948C180.224 48.0518 179.552 47.4802 178.409 47.4802C177.381 47.4802 176.695 47.966 176.552 48.709H175.38C175.552 47.2802 176.709 46.4372 178.466 46.4372C180.324 46.4372 181.395 47.3659 181.395 49.0662V52.2524C181.395 52.6382 181.538 52.7382 181.867 52.7382ZM180.224 50.8379V50.4807H177.966C176.923 50.4807 176.337 50.8665 176.337 51.6952C176.337 52.4096 176.952 52.8954 177.923 52.8954C179.381 52.8954 180.224 52.0524 180.224 50.8379ZM183.682 51.9095V47.5945H182.368V46.5229H183.682V44.4797H184.854V46.5229H186.74V47.5945H184.854V51.8952C184.854 52.5096 185.068 52.7382 185.697 52.7382H186.854V53.8098H185.582C184.182 53.8098 183.682 53.1954 183.682 51.9095ZM190.96 53.8955C188.831 53.8955 187.431 52.4525 187.431 50.1807C187.431 47.9517 188.874 46.4372 190.988 46.4372C192.774 46.4372 193.903 47.4374 194.203 49.0376H192.974C192.76 48.066 192.046 47.4802 190.974 47.4802C189.574 47.4802 188.631 48.5947 188.631 50.1807C188.631 51.7666 189.574 52.8525 190.974 52.8525C192.017 52.8525 192.732 52.2524 192.96 51.3237H194.203C193.917 52.8954 192.732 53.8955 190.96 53.8955ZM199.06 46.4372C200.688 46.4372 202.017 47.3374 202.017 49.752V53.8098H200.846V49.8235C200.846 48.3089 200.117 47.5088 198.86 47.5088C197.502 47.5088 196.659 48.5233 196.659 50.1664V53.8098H195.488V43.8082H196.659V47.7231C197.088 47.0373 197.831 46.4372 199.06 46.4372Z" fill="#03BC00"/>
<path d="M284.267 35.1631C285.833 35.1631 286.918 36.2604 286.918 37.8492C286.918 39.6209 285.615 40.5811 284.118 40.5811C282.335 40.5811 281.306 39.4266 281.226 38.0321H282.175C282.266 38.958 282.963 39.7238 284.118 39.7238C285.055 39.7238 285.935 39.0951 285.935 37.8606C285.935 36.7748 285.238 36.0089 284.129 36.0089C283.638 36.0089 282.655 36.1461 282.312 37.0948L281.386 37.0719L281.649 32.5226H286.438V33.4028H282.529L282.346 35.9289C282.838 35.346 283.524 35.1631 284.267 35.1631ZM290.775 34.6258C292.078 34.6258 293.141 35.346 293.141 37.2777V40.5239H292.203V37.3348C292.203 36.1232 291.62 35.4831 290.615 35.4831C289.529 35.4831 288.854 36.2947 288.854 37.6092V40.5239H287.917V32.5226H288.854V35.6546C289.197 35.1059 289.792 34.6258 290.775 34.6258ZM297.033 34.6944H297.296V35.6089H296.827C295.604 35.6089 295.273 36.6262 295.273 37.552V40.5239H294.335V34.6944H295.147L295.273 35.5746C295.547 35.1288 295.993 34.6944 297.033 34.6944ZM297.745 38.6036H298.706C298.74 39.2894 299.346 39.7924 300.317 39.7924C301.14 39.7924 301.723 39.438 301.723 38.9008C301.723 38.1693 301.083 38.1121 300.214 38.0092C298.911 37.8492 297.871 37.5863 297.871 36.3747C297.871 35.3117 298.843 34.6144 300.157 34.6258C301.483 34.6373 302.443 35.2545 302.535 36.4661H301.575C301.506 35.8718 300.957 35.426 300.157 35.426C299.346 35.426 298.797 35.7689 298.797 36.3061C298.797 36.9462 299.414 37.0262 300.26 37.1291C301.586 37.2891 302.649 37.5406 302.649 38.8322C302.649 39.9181 301.609 40.5925 300.317 40.5925C298.809 40.5925 297.768 39.8838 297.745 38.6036ZM309.527 35.1631C311.093 35.1631 312.179 36.2604 312.179 37.8492C312.179 39.6209 310.876 40.5811 309.379 40.5811C307.596 40.5811 306.567 39.4266 306.487 38.0321H307.436C307.527 38.958 308.224 39.7238 309.379 39.7238C310.316 39.7238 311.196 39.0951 311.196 37.8606C311.196 36.7748 310.499 36.0089 309.39 36.0089C308.899 36.0089 307.916 36.1461 307.573 37.0948L306.647 37.0719L306.91 32.5226H311.699V33.4028H307.79L307.607 35.9289C308.098 35.346 308.784 35.1631 309.527 35.1631ZM312.35 33.4028V32.5226H317.996V33.197L314.064 40.5239H313.024L316.945 33.4028H312.35ZM325.263 34.6258C326.474 34.6258 327.469 35.3231 327.469 37.1634V40.5239H326.532V37.2205C326.532 36.0775 326.029 35.4831 325.149 35.4831C324.177 35.4831 323.583 36.2147 323.583 37.4034V40.5239H322.645V37.2205C322.645 36.0775 322.131 35.4831 321.239 35.4831C320.279 35.4831 319.696 36.2832 319.696 37.4491V40.5239H318.759V34.6944H319.571L319.696 35.4945C320.005 35.0716 320.496 34.6258 321.399 34.6258C322.211 34.6258 322.908 34.9916 323.24 35.7346C323.594 35.1059 324.223 34.6258 325.263 34.6258ZM329.151 33.7114C328.808 33.7114 328.546 33.4599 328.546 33.1056C328.546 32.7513 328.808 32.4998 329.151 32.4998C329.494 32.4998 329.757 32.7513 329.757 33.1056C329.757 33.4599 329.494 33.7114 329.151 33.7114ZM328.671 40.5239V34.6944H329.609V40.5239H328.671ZM333.75 34.6258C335.065 34.6258 336.105 35.346 336.105 37.2777V40.5239H335.168V37.3348C335.168 36.1232 334.607 35.4831 333.59 35.4831C332.493 35.4831 331.83 36.2947 331.83 37.6092V40.5239H330.893V34.6944H331.704L331.83 35.4831C332.173 35.0373 332.767 34.6258 333.75 34.6258ZM342.989 34.6944H343.252V35.6089H342.783C341.56 35.6089 341.229 36.6262 341.229 37.552V40.5239H340.291V34.6944H341.103L341.229 35.5746C341.503 35.1288 341.949 34.6944 342.989 34.6944ZM346.416 40.5925C344.667 40.5925 343.524 39.3923 343.524 37.6092C343.524 35.8375 344.644 34.6258 346.29 34.6258C347.936 34.6258 349.01 35.666 349.056 37.392C349.056 37.5177 349.045 37.6549 349.033 37.7921H344.507V37.8721C344.541 38.9808 345.238 39.7581 346.347 39.7581C347.17 39.7581 347.81 39.3237 348.004 38.5693H348.953C348.725 39.7352 347.764 40.5925 346.416 40.5925ZM344.564 37.0148H348.05C347.959 36.0089 347.273 35.4488 346.301 35.4488C345.444 35.4488 344.655 36.0661 344.564 37.0148ZM356.629 34.6258C357.841 34.6258 358.836 35.3231 358.836 37.1634V40.5239H357.898V37.2205C357.898 36.0775 357.395 35.4831 356.515 35.4831C355.544 35.4831 354.949 36.2147 354.949 37.4034V40.5239H354.012V37.2205C354.012 36.0775 353.498 35.4831 352.606 35.4831C351.646 35.4831 351.063 36.2832 351.063 37.4491V40.5239H350.126V34.6944H350.937L351.063 35.4945C351.371 35.0716 351.863 34.6258 352.766 34.6258C353.578 34.6258 354.275 34.9916 354.606 35.7346C354.961 35.1059 355.589 34.6258 356.629 34.6258ZM365.193 39.6666H365.49V40.5239H364.976C364.199 40.5239 363.936 40.1924 363.924 39.6209C363.558 40.1467 362.975 40.5925 361.97 40.5925C360.689 40.5925 359.821 39.9524 359.821 38.8894C359.821 37.7235 360.632 37.0719 362.164 37.0719H363.878V36.6719C363.878 35.9175 363.341 35.4603 362.427 35.4603C361.604 35.4603 361.055 35.8489 360.941 36.4433H360.004C360.141 35.3002 361.067 34.6258 362.473 34.6258C363.958 34.6258 364.816 35.3688 364.816 36.729V39.278C364.816 39.5866 364.93 39.6666 365.193 39.6666ZM363.878 38.1464V37.8606H362.072C361.238 37.8606 360.769 38.1693 360.769 38.8322C360.769 39.4037 361.261 39.7924 362.038 39.7924C363.204 39.7924 363.878 39.118 363.878 38.1464ZM366.691 33.7114C366.348 33.7114 366.085 33.4599 366.085 33.1056C366.085 32.7513 366.348 32.4998 366.691 32.4998C367.034 32.4998 367.297 32.7513 367.297 33.1056C367.297 33.4599 367.034 33.7114 366.691 33.7114ZM366.211 40.5239V34.6944H367.148V40.5239H366.211ZM371.29 34.6258C372.604 34.6258 373.644 35.346 373.644 37.2777V40.5239H372.707V37.3348C372.707 36.1232 372.147 35.4831 371.13 35.4831C370.032 35.4831 369.369 36.2947 369.369 37.6092V40.5239H368.432V34.6944H369.244L369.369 35.4831C369.712 35.0373 370.307 34.6258 371.29 34.6258ZM375.319 33.7114C374.977 33.7114 374.714 33.4599 374.714 33.1056C374.714 32.7513 374.977 32.4998 375.319 32.4998C375.662 32.4998 375.925 32.7513 375.925 33.1056C375.925 33.4599 375.662 33.7114 375.319 33.7114ZM374.839 40.5239V34.6944H375.777V40.5239H374.839ZM379.918 34.6258C381.233 34.6258 382.273 35.346 382.273 37.2777V40.5239H381.336V37.3348C381.336 36.1232 380.776 35.4831 379.758 35.4831C378.661 35.4831 377.998 36.2947 377.998 37.6092V40.5239H377.061V34.6944H377.872L377.998 35.4831C378.341 35.0373 378.935 34.6258 379.918 34.6258ZM388.063 35.7003L388.189 34.6944H389V40.2382C389 41.9184 388.109 42.8786 386.108 42.8786C384.622 42.8786 383.582 42.1813 383.434 40.9011H384.394C384.554 41.6327 385.205 42.0442 386.177 42.0442C387.4 42.0442 388.063 41.4726 388.063 40.2039V39.5181C387.674 40.181 387.046 40.5925 386.063 40.5925C384.451 40.5925 383.262 39.5066 383.262 37.6092C383.262 35.826 384.451 34.6258 386.063 34.6258C387.046 34.6258 387.697 35.0488 388.063 35.7003ZM386.154 39.7581C387.297 39.7581 388.074 38.8779 388.074 37.632C388.074 36.3518 387.297 35.4603 386.154 35.4603C385 35.4603 384.222 36.3404 384.222 37.6092C384.222 38.8779 385 39.7581 386.154 39.7581Z" fill="#A8A8A8"/>
<defs>
<clipPath id="clip0_468_12337">
<rect width="42.864" height="42.864" fill="white" transform="translate(21.8643 14.5918)"/>
</clipPath>
<clipPath id="clip1_468_12337">
<rect width="8.5728" height="8.5728" fill="white" transform="translate(54.1484 46.8757)"/>
</clipPath>
<clipPath id="clip2_468_12337">
<rect width="8.5728" height="8.5728" fill="white" transform="translate(54.1484 46.8757)"/>
</clipPath>
</defs>
</svg>
